<?xml version="1.0" encoding="UTF-8" standalone="no"?>
<!-- Created with Inkscape (http://www.inkscape.org/) -->

<svg
   xmlns:dc="http://purl.org/dc/elements/1.1/"
   xmlns:cc="http://creativecommons.org/ns#"
   xmlns:rdf="http://www.w3.org/1999/02/22-rdf-syntax-ns#"
   xmlns:svg="http://www.w3.org/2000/svg"
   xmlns="http://www.w3.org/2000/svg"
   xmlns:xlink="http://www.w3.org/1999/xlink"
   xmlns:sodipodi="http://sodipodi.sourceforge.net/DTD/sodipodi-0.dtd"
   xmlns:inkscape="http://www.inkscape.org/namespaces/inkscape"
   version="1.1"
   width="744.09448"
   height="1052.3622"
   id="svg2"
   inkscape:version="0.48.4 r9939"
   sodipodi:docname="sealious_.svg">
  <sodipodi:namedview
     pagecolor="#ffffff"
     bordercolor="#666666"
     borderopacity="1"
     objecttolerance="10"
     gridtolerance="10"
     guidetolerance="10"
     inkscape:pageopacity="0"
     inkscape:pageshadow="2"
     inkscape:window-width="1280"
     inkscape:window-height="749"
     id="namedview48"
     showgrid="false"
     inkscape:zoom="1.7940591"
     inkscape:cx="361.23413"
     inkscape:cy="781.93331"
     inkscape:window-x="0"
     inkscape:window-y="25"
     inkscape:window-maximized="1"
     inkscape:current-layer="layer1" />
  <defs
     id="defs4">
    <linearGradient
       inkscape:collect="always"
       id="linearGradient3829">
      <stop
         style="stop-color:#000000;stop-opacity:1;"
         offset="0"
         id="stop3831" />
      <stop
         style="stop-color:#008080;stop-opacity:1"
         offset="1"
         id="stop3833" />
    </linearGradient>
    <linearGradient
       id="linearGradient3178">
      <stop
         id="stop3180"
         style="stop-color:#008080;stop-opacity:1"
         offset="0" />
      <stop
         id="stop3182"
         style="stop-color:#008080;stop-opacity:0"
         offset="1" />
    </linearGradient>
    <linearGradient
       id="linearGradient3080">
      <stop
         id="stop3082"
         style="stop-color:#000000;stop-opacity:1"
         offset="0" />
      <stop
         id="stop3084"
         style="stop-color:#000000;stop-opacity:0"
         offset="1" />
    </linearGradient>
    <linearGradient
       id="linearGradient3064">
      <stop
         id="stop3066"
         style="stop-color:#000000;stop-opacity:1"
         offset="0" />
      <stop
         id="stop3068"
         style="stop-color:#000000;stop-opacity:0"
         offset="1" />
    </linearGradient>
    <linearGradient
       x1="205.25424"
       y1="122.28245"
       x2="257.68332"
       y2="122.19663"
       id="linearGradient3070"
       xlink:href="#linearGradient3064"
       gradientUnits="userSpaceOnUse"
       gradientTransform="matrix(1.0247035,0,0,1.0247035,31.367402,-3.5826005)" />
    <linearGradient
       x1="232.61069"
       y1="121.1574"
       x2="257.68332"
       y2="122.19663"
       id="linearGradient3078"
       xlink:href="#linearGradient3080"
       gradientUnits="userSpaceOnUse"
       gradientTransform="matrix(1.0247035,0,0,1.0247035,31.367402,-3.5826005)" />
    <linearGradient
       x1="232.61069"
       y1="121.1574"
       x2="257.68332"
       y2="122.19663"
       id="linearGradient3094"
       xlink:href="#linearGradient3080"
       gradientUnits="userSpaceOnUse"
       gradientTransform="matrix(1.0247035,0,0,1.0247035,31.367402,-3.5826005)" />
    <linearGradient
       x1="220.37474"
       y1="138.09827"
       x2="199.98764"
       y2="142.95233"
       id="linearGradient3184"
       xlink:href="#linearGradient3178"
       gradientUnits="userSpaceOnUse"
       gradientTransform="matrix(2.8542188,0,0,2.8542188,-518.41362,341.00088)" />
    <linearGradient
       x1="222.41666"
       y1="120.69945"
       x2="227.51343"
       y2="118.02971"
       id="linearGradient3184-4"
       xlink:href="#linearGradient3178-5"
       gradientUnits="userSpaceOnUse"
       gradientTransform="matrix(2.8542188,0,0,2.8542188,-529.52304,181.49929)" />
    <linearGradient
       id="linearGradient3178-5">
      <stop
         id="stop3180-6"
         style="stop-color:#008080;stop-opacity:1"
         offset="0" />
      <stop
         id="stop3182-8"
         style="stop-color:#008080;stop-opacity:0"
         offset="1" />
    </linearGradient>
    <linearGradient
       x1="220.37474"
       y1="138.09827"
       x2="199.98764"
       y2="142.95233"
       id="linearGradient3184-44"
       xlink:href="#linearGradient3178-4"
       gradientUnits="userSpaceOnUse"
       gradientTransform="matrix(2.8542188,0,0,2.8542188,-519.92903,28.390274)" />
    <linearGradient
       id="linearGradient3178-4">
      <stop
         id="stop3180-0"
         style="stop-color:#008080;stop-opacity:1"
         offset="0" />
      <stop
         id="stop3182-7"
         style="stop-color:#008080;stop-opacity:0"
         offset="1" />
    </linearGradient>
    <linearGradient
       inkscape:collect="always"
       xlink:href="#linearGradient3829"
       id="linearGradient3835"
       x1="259.73691"
       y1="424.89456"
       x2="177.75621"
       y2="276.6987"
       gradientUnits="userSpaceOnUse"
       gradientTransform="matrix(2.8542188,0,0,2.8542188,-515.03876,-423.96918)" />
  </defs>
  <metadata
     id="metadata7">
    <rdf:RDF>
      <cc:Work
         rdf:about="">
        <dc:format>image/svg+xml</dc:format>
        <dc:type
           rdf:resource="http://purl.org/dc/dcmitype/StillImage" />
        <dc:title></dc:title>
      </cc:Work>
    </rdf:RDF>
  </metadata>
  <g
     id="layer1">
    <g
       id="text2995"
       style="font-size:47.05975342px;font-style:normal;font-variant:normal;font-weight:normal;font-stretch:normal;text-align:start;line-height:100%;letter-spacing:0px;word-spacing:0px;writing-mode:lr-tb;text-anchor:start;fill:#000000;fill-opacity:0;stroke:none;font-family:Nimbus Sans L;-inkscape-font-specification:Nimbus Sans L"
       transform="matrix(2.8542188,0,0,2.8542188,-515.03876,-423.96918)" />
    <path
       d="m 188.46345,133.57921 c -8.32827,0 -16.17794,2.04568 -23.10133,5.61925 -0.66645,0.45334 -1.34282,0.92269 -1.96227,1.42711 -6.07762,4.98456 -9.09783,11.7683 -9.09783,20.42547 0,7.47681 2.18427,13.37387 6.60038,17.57128 4.41604,4.19751 11.61431,7.21956 21.49583,9.18705 l 8.02749,1.6055 c 6.73337,1.35549 11.60914,3.35439 14.53869,6.06522 2.97314,2.7109 4.45965,6.51811 4.45972,11.32767 -7e-5,5.50919 -2.04445,9.78162 -6.15442,12.7548 -4.11005,2.97321 -10.00713,4.45972 -17.57128,4.45972 -4.98453,0 -10.00366,-0.78872 -15.16304,-2.31905 -5.1594,-1.53029 -10.40938,-3.85104 -15.78738,-6.86798 l 0,6.60038 c 8.94078,8.05536 20.73352,13.02238 33.71544,13.02238 8.14596,0 15.84376,-1.92317 22.65536,-5.35166 0.0568,-0.0342 0.12224,-0.0546 0.17832,-0.089 0.82312,-0.5059 1.66652,-1.03258 2.40826,-1.6055 6.38357,-4.89702 9.54373,-12.09698 9.54378,-21.58503 -5e-5,-7.95767 -2.32427,-14.27621 -7.04634,-18.99841 -4.67849,-4.76585 -11.97116,-8.10964 -21.85263,-9.98979 l -8.02749,-1.6055 c -7.25816,-1.35534 -12.18285,-3.1654 -14.80626,-5.35166 -2.57969,-2.22982 -3.92458,-5.48266 -3.92453,-9.81138 -5e-5,-5.15928 1.9954,-9.15365 5.8868,-11.95204 3.93513,-2.79819 9.46496,-4.192 16.67936,-4.1921 4.15368,1e-4 8.47333,0.60344 12.93317,1.78389 4.45974,1.18061 9.24281,2.94692 14.27109,5.35163 l 0,-8.38424 c -8.1921,-5.74538 -18.1332,-9.09783 -28.89897,-9.09783 z"
       id="path2993-6"
       style="fill:#008080;fill-opacity:1;fill-rule:nonzero;stroke:#333333;stroke-width:0;stroke-linecap:round;stroke-linejoin:round;stroke-miterlimit:4;stroke-opacity:1;stroke-dashoffset:10"
       inkscape:connector-curvature="0" />
    <text
       x="202.87015"
       y="233.08803"
       id="text3127-6"
       xml:space="preserve"
       style="font-size:158.00869751px;font-style:normal;font-variant:normal;font-weight:normal;font-stretch:normal;text-align:start;line-height:100%;letter-spacing:0px;word-spacing:0px;writing-mode:lr-tb;text-anchor:start;fill:#008080;fill-opacity:1;stroke:none;font-family:Cabin;-inkscape-font-specification:Cabin"
       sodipodi:linespacing="100%"><tspan
         x="202.87015"
         y="233.08803"
         id="tspan3129-8"
         style="font-size:137.00250244px;letter-spacing:-5.70843744px;fill:#008080;font-family:lato;-inkscape-font-specification:lato"> ealious</tspan></text>
    <text
       x="259.87741"
       y="421.49765"
       id="text3288"
       xml:space="preserve"
       style="font-size:158.00869751px;font-style:normal;font-variant:normal;font-weight:normal;font-stretch:normal;text-align:start;line-height:100%;letter-spacing:0px;word-spacing:0px;writing-mode:lr-tb;text-anchor:start;fill:#000000;fill-opacity:1;stroke:none;font-family:Rachana;-inkscape-font-specification:Rachana"
       sodipodi:linespacing="100%"><tspan
         x="259.87741"
         y="421.49765"
         id="tspan3290"
         style="font-style:normal;font-variant:normal;font-weight:bold;font-stretch:normal;font-family:Sawasdee;-inkscape-font-specification:Sawasdee Bold" /></text>
    <path
       style="fill:#008080;fill-opacity:1;fill-rule:nonzero;stroke:#ffffff;stroke-width:0;stroke-linecap:round;stroke-linejoin:round;stroke-miterlimit:4;stroke-opacity:1;stroke-dasharray:none;stroke-dashoffset:10"
       id="path4085"
       d="m 178.36514,160.62079 c -0.10387,0.29483 -0.13583,0.60735 -0.15992,0.91703 -0.0128,0.2749 0.046,0.54001 0.10619,0.80558 0.0622,0.23753 0.19803,0.44812 0.30806,0.66589 0.0844,0.21543 0.20721,0.41208 0.31142,0.61785 0.11093,0.17376 0.2364,0.32728 0.40462,0.44693 0.29123,0.26055 0.65588,0.41634 1.00858,0.57448 0.35963,0.16413 0.75316,0.19019 1.13931,0.23703 0.13514,0.0164 0.2698,0.0365 0.4047,0.0547 0.14945,0.0173 0.29889,0.0347 0.44834,0.052 -0.31013,0.0525 1.32776,0.0499 0.99547,0.0538 -0.27515,0.003 -0.55078,0.0108 -0.82548,-0.005 -0.17826,-0.0104 0.35705,-0.007 0.53555,-0.0116 0.69528,-0.0171 0.40068,-0.003 1.10071,-0.0609 0.72078,-0.10564 1.45278,-0.21434 2.14318,-0.45672 0.35971,-0.12628 0.45019,-0.18453 0.78118,-0.35127 0.90316,-0.49539 1.18053,-1.20622 1.50613,-2.13476 0.19198,-0.62775 0.30244,-1.27182 0.26671,-1.92924 -0.0129,-0.23691 -0.0455,-0.39052 -0.0849,-0.61848 -0.0201,-0.069 -0.0402,-0.13798 -0.0603,-0.20697 0,0 1.43255,-0.0354 1.43255,-0.0354 l 0,0 c 0.0159,0.0739 0.0318,0.14774 0.0477,0.22162 0.11163,0.91619 0.0355,1.72438 -0.23475,2.61338 -0.31257,0.94328 -0.58092,1.7229 -1.48765,2.24266 -0.34256,0.17727 -0.43032,0.2357 -0.80273,0.37214 -0.69351,0.25406 -1.43265,0.36197 -2.1575,0.48429 -0.54439,0.0537 -1.08523,0.0805 -1.63252,0.0844 -0.9625,0.007 -1.93414,0.0464 -2.89384,-0.0608 -0.68641,-0.079 -1.40052,-0.1064 -2.04351,-0.38065 -0.3648,-0.16389 -0.7243,-0.3457 -1.03089,-0.60664 -0.17066,-0.14246 -0.30786,-0.31356 -0.41419,-0.50971 -0.10682,-0.20431 -0.22132,-0.40498 -0.30902,-0.61866 -0.1166,-0.22784 -0.25244,-0.45097 -0.31054,-0.70275 -0.0597,-0.28009 -0.10958,-0.56082 -0.0974,-0.84909 0.0286,-0.31999 0.0636,-0.63985 0.14272,-0.95203 0,0 1.46207,0.0471 1.46207,0.0471 z"
       inkscape:connector-curvature="0" />
    <path
       style="fill:#008080;fill-opacity:1;fill-rule:nonzero;stroke:#ffffff;stroke-width:0;stroke-linecap:round;stroke-linejoin:round;stroke-miterlimit:4;stroke-opacity:1;stroke-dasharray:none;stroke-dashoffset:10"
       id="path4087"
       d="m 178.30006,161.94705 c -0.33204,0.30707 -0.62237,0.65334 -0.94872,0.96616 -0.63755,0.59409 -1.29043,1.17213 -1.95849,1.73176 -0.10923,0.0847 -0.21949,0.16805 -0.32768,0.25405 -0.1595,0.12678 -0.41763,0.3471 -0.58054,0.46804 -0.31719,0.23547 -0.65296,0.44645 -0.98861,0.65408 -0.33624,0.19885 -0.70614,0.3368 -1.10133,0.33543 -1.62247,-0.006 -1.11172,0.12696 -1.80542,-0.0772 -0.5027,-0.20629 -0.83004,-0.63329 -1.12885,-1.06668 -0.52931,-0.85409 -0.94522,-1.77351 -1.27821,-2.71986 -0.35851,-1.01288 -0.67949,-2.03741 -0.98028,-3.06868 0,0 1.38741,-0.0378 1.38741,-0.0378 l 0,0 c 0.27576,1.03357 0.58434,2.05681 0.95837,3.05962 0.33913,0.9356 0.75613,1.84897 1.30981,2.67889 0.31041,0.4063 0.65061,0.8115 1.15968,0.96339 0.57243,0.11075 0.21529,0.0294 -1.03491,0.0499 -0.0806,0.001 0.16125,0.004 0.24169,-3.7e-4 0.31492,-0.0176 0.60409,-0.0994 0.8776,-0.26052 0.33717,-0.1982 0.67176,-0.40427 0.98736,-0.63609 0.10074,-0.074 0.49027,-0.39361 0.58836,-0.46991 0.1086,-0.0845 0.21969,-0.16569 0.32954,-0.24853 0.66873,-0.54626 1.3209,-1.11268 1.93151,-1.72372 0.32015,-0.30699 0.5985,-0.65214 0.91194,-0.96606 0,0 1.44977,0.1141 1.44977,0.1141 z"
       inkscape:connector-curvature="0" />
    <path
       style="fill:#008080;fill-opacity:1;fill-rule:nonzero;stroke:#ffffff;stroke-width:0;stroke-linecap:round;stroke-linejoin:round;stroke-miterlimit:4;stroke-opacity:1;stroke-dasharray:none;stroke-dashoffset:10"
       id="path4089"
       d="m 179.50582,160.30631 c 1.65062,-0.37935 3.33674,-0.56318 5.01436,-0.77697 3.11722,-0.39337 6.25728,-0.5209 9.39487,-0.61769 0.80349,9.3e-4 1.60697,0.002 2.41045,0.003 0,0 -1.21412,0.19148 -1.21412,0.19148 l 0,0 c -0.0109,-0.004 -0.0219,-0.009 -0.0328,-0.0134 -3.12787,0.0822 -6.25905,0.20735 -9.36501,0.60983 -1.59456,0.2169 -3.20726,0.38243 -4.76519,0.80019 0,0 -1.44259,-0.19625 -1.44259,-0.19625 z"
       inkscape:connector-curvature="0" />
    <path
       style="fill:#008080;fill-opacity:1;fill-rule:nonzero;stroke:#ffffff;stroke-width:0;stroke-linecap:round;stroke-linejoin:round;stroke-miterlimit:4;stroke-opacity:1;stroke-dasharray:none;stroke-dashoffset:10"
       id="path4091"
       d="m 176.85244,160.04869 c -0.59374,-0.0199 -1.18848,-0.0198 -1.78122,-0.0596 -0.23212,-0.0156 -0.4599,-0.0706 -0.68976,-0.10644 -0.35713,-0.0557 -0.71431,-0.11108 -1.07119,-0.16835 -1.54634,-0.24812 -3.08785,-0.52062 -4.63497,-0.76427 -4.15179,-0.63443 -8.29468,-1.32803 -12.43735,-2.01958 -0.74062,-0.12948 -1.48123,-0.25897 -2.22185,-0.38845 0,0 1.01005,-0.14202 1.01005,-0.14202 l 0,0 c 0.73555,0.12991 1.4711,0.25982 2.20664,0.38973 4.18204,0.69779 8.36823,1.37376 12.56146,2.00084 1.5848,0.24569 3.16514,0.51903 4.75273,0.74622 0.38282,0.0548 0.76617,0.10583 1.14961,0.15609 0.25365,0.0332 0.99329,-0.0141 0.76164,0.0944 -0.31321,0.1468 -0.69143,0.0231 -1.03715,0.0347 0,0 1.43136,0.2267 1.43136,0.2267 z"
       inkscape:connector-curvature="0" />
    <path
       style="fill:#008080;fill-opacity:1;fill-rule:nonzero;stroke:#ffffff;stroke-width:0;stroke-linecap:round;stroke-linejoin:round;stroke-miterlimit:4;stroke-opacity:1;stroke-dasharray:none;stroke-dashoffset:10"
       id="path4093"
       d="m 174.28709,160.9755 c -2.6615,0.62902 -5.34709,1.15005 -8.02489,1.70395 -1.63996,0.34545 -3.28072,0.68694 -4.9224,1.02404 0,0 -1.1692,-0.16173 -1.1692,-0.16173 l 0,0 c 1.66929,-0.32125 3.33754,-0.64806 4.99807,-1.01252 2.57515,-0.5418 5.16587,-1.03725 7.70245,-1.74258 0,0 1.41597,0.18884 1.41597,0.18884 z"
       inkscape:connector-curvature="0" />
    <path
       style="fill:#008080;fill-opacity:1;fill-rule:nonzero;stroke:#ffffff;stroke-width:0;stroke-linecap:round;stroke-linejoin:round;stroke-miterlimit:4;stroke-opacity:1;stroke-dasharray:none;stroke-dashoffset:10"
       id="path4095"
       d="m 187.61924,161.20391 c -0.21525,-0.012 -0.85448,0.0178 -0.64574,-0.0361 0.38458,-0.0993 0.79136,-0.0692 1.18704,-0.10363 0.48785,-0.0425 0.97545,-0.0879 1.46355,-0.12737 1.72678,-0.13948 3.45314,-0.2811 5.17962,-0.42488 2.43282,-0.23536 1.21524,-0.11987 3.65272,-0.34646 0,0 1.0918,0.16257 1.0918,0.16257 l 0,0 c -2.43397,0.22611 -1.21891,0.10989 -3.64516,0.34859 -0.59532,0.0503 -1.19064,0.10066 -1.78597,0.15099 -0.57334,0.0522 -1.14641,0.10764 -1.72003,0.15665 -0.53351,0.0456 -1.0679,0.0806 -1.60132,0.12716 -0.46864,0.0409 -0.93678,0.0875 -1.40477,0.13531 -0.367,0.0375 -0.73181,0.10003 -1.10014,0.12082 -0.68988,0.0389 -1.38142,0.0388 -2.07213,0.0582 0,0 1.40053,-0.22182 1.40053,-0.22182 z"
       inkscape:connector-curvature="0" />
    <path
       style="fill:#008080;fill-opacity:1;fill-rule:nonzero;stroke:#ffffff;stroke-width:0;stroke-linecap:round;stroke-linejoin:round;stroke-miterlimit:4;stroke-opacity:1;stroke-dasharray:none;stroke-dashoffset:10"
       id="path4097"
       d="m 183.71279,161.20278 c 1.56665,0.11925 3.13223,0.2512 4.6959,0.4058 0,0 -1.2074,0.17936 -1.2074,0.17936 l 0,0 c -1.63158,-0.1533 -3.26539,-0.29591 -4.90325,-0.36108 0,0 1.41475,-0.22408 1.41475,-0.22408 z"
       inkscape:connector-curvature="0" />
    <path
       style="fill:#008080;fill-opacity:1;fill-rule:nonzero;stroke:#ffffff;stroke-width:0;stroke-linecap:round;stroke-linejoin:round;stroke-miterlimit:4;stroke-opacity:1;stroke-dasharray:none;stroke-dashoffset:10"
       id="path4099"
       d="m 169.68073,165.18106 c -2.16027,1.34424 -4.39063,2.57067 -6.58116,3.86412 0,0 -1.14089,-0.11894 -1.14089,-0.11894 l 0,0 c 2.12682,-1.24838 4.28788,-2.45518 6.30371,-3.87966 0,0 1.41834,0.13448 1.41834,0.13448 z"
       inkscape:connector-curvature="0" />
    <path
       style="fill:#008080;fill-opacity:1;fill-rule:nonzero;stroke:#ffffff;stroke-width:0;stroke-linecap:round;stroke-linejoin:round;stroke-miterlimit:4;stroke-opacity:1;stroke-dasharray:none;stroke-dashoffset:10"
       id="path4101"
       d="m 184.53026,152.01606 c -0.17797,0.41196 -0.46425,0.95864 -0.45019,1.41658 -0.47462,-0.0371 -0.9502,-0.0633 -1.42384,-0.11123 -0.0195,-0.002 0.0417,-0.0109 0.0521,-0.0276 0.0291,-0.0471 0.0444,-0.10167 0.0607,-0.15457 0.0705,-0.2291 0.0962,-0.46928 0.12536,-0.70601 0,0 1.42678,0.0175 1.42678,0.0175 l 0,0 c -0.0382,0.30856 -0.0712,0.62149 -0.15718,0.92148 -0.0139,0.0485 6.9e-4,0.1412 -0.0497,0.1428 -0.49803,0.0158 -0.99461,-0.0625 -1.49191,-0.0938 0.0853,-0.50654 0.2949,-0.98362 0.46021,-1.46697 0,0 1.44768,0.0618 1.44768,0.0618 z"
       inkscape:connector-curvature="0" />
    <path
       style="fill:#008080;fill-opacity:1;fill-rule:nonzero;stroke:#ffffff;stroke-width:0;stroke-linecap:round;stroke-linejoin:round;stroke-miterlimit:4;stroke-opacity:1;stroke-dasharray:none;stroke-dashoffset:10"
       id="path4103"
       d="m 175.82639,152.62776 c -0.0228,0.34352 -0.0817,0.68905 -0.17589,1.02066 -0.21291,0.57939 -0.30867,0.2231 -1.55418,0.10324 -0.0273,-0.003 -0.0705,-0.33306 -0.075,-0.36052 0.002,-0.12358 -0.008,-0.24648 -0.0223,-0.36906 0,0 1.45821,-0.0116 1.45821,-0.0116 l 0,0 c 0.005,0.11837 0.0114,0.23671 0.0166,0.35509 0.0122,0.0629 0.0267,0.15729 0.0521,0.21829 0.008,0.0191 0.0549,0.0504 0.0343,0.0517 -0.47637,0.029 -0.95424,0.0222 -1.43136,0.0332 0.0103,-0.001 0.0234,0.004 0.0309,-0.003 0.0181,-0.0172 0.0264,-0.0424 0.0395,-0.0636 0.11799,-0.30673 0.17272,-0.64639 0.16585,-0.97413 0,0 1.46121,0 1.46121,0 z"
       inkscape:connector-curvature="0" />
    <path
       style="fill:#008080;fill-opacity:1;fill-rule:nonzero;stroke:#ffffff;stroke-width:0;stroke-linecap:round;stroke-linejoin:round;stroke-miterlimit:4;stroke-opacity:1;stroke-dasharray:none;stroke-dashoffset:10"
       id="path4105"
       d="m 156.28477,212.67989 c -1.07347,-1.93546 -2.03584,-3.92927 -3.07821,-5.88121 -0.47392,-0.82787 -0.98459,-1.634 -1.46537,-2.45778 -0.0732,-0.12547 -0.15326,-0.24772 -0.21385,-0.37976 -0.0239,-0.0521 -0.0948,-0.16786 -0.0375,-0.16793 1.05358,-0.001 2.10434,0.10912 3.15651,0.16369 0.80806,1.06347 1.81533,1.94978 2.80359,2.83856 1.02391,0.92086 1.95648,1.71532 3.0744,2.51195 0.19504,0.10498 0.37177,0.25542 0.58512,0.31494 0.10984,0.0306 0.45117,-0.0527 0.33723,-0.0577 -0.92376,-0.0401 -1.85578,0.0651 -2.77347,-0.048 -0.10385,-0.0128 -0.0463,-0.20451 -0.0801,-0.30354 -0.20826,-0.60981 -0.33039,-0.82739 -0.61708,-1.45323 -0.84189,-1.65057 -1.62485,-3.33448 -2.53673,-4.94881 -0.46715,-0.82703 -1.16794,-1.91158 -1.67468,-2.71211 -0.69459,-1.11397 -1.52475,-2.13114 -2.326,-3.16763 -0.009,-0.0119 -0.61006,-0.75803 -0.674,-0.92814 -0.0268,-0.0713 0.006,-0.15213 0.009,-0.22819 1.09192,-9.6e-4 2.18811,-0.0994 3.27575,-0.003 0.26932,0.0239 0.48405,0.24113 0.72775,0.35824 0.35536,0.17078 0.71179,0.33934 1.06937,0.50541 1.55115,0.7204 3.11169,1.41437 4.68297,2.08958 3.09611,1.19235 6.16925,2.4479 9.2777,3.60825 0.20483,0.047 0.82454,0.13443 0.61449,0.14114 -0.8374,0.0268 -1.67861,0.004 -2.51218,-0.0805 -0.0582,-0.006 0.0546,-0.11034 0.0486,-0.16849 -0.0188,-0.18333 -0.0657,-0.36367 -0.12104,-0.53943 -0.17393,-0.55216 -0.48866,-1.23356 -0.71419,-1.75297 -0.38217,-0.76597 -0.74287,-1.57455 -1.36332,-2.18561 -0.1132,-0.11149 -0.5378,-0.27616 -0.3794,-0.28855 2.96781,-0.2321 3.06412,-0.51011 2.35518,0.39449 -0.53712,1.82141 -0.3268,3.71874 -0.3313,5.58381 -0.0224,0.14555 -0.0158,0.29866 -0.0672,0.43664 -0.37199,0.9977 -3.05284,0.36713 -3.38107,0.35342 -0.14187,-0.006 -1.18703,-0.85133 -1.31435,-0.95005 -0.54059,-0.45252 -1.09779,-0.88915 -1.57883,-1.40746 -0.0665,-0.0716 -0.57021,-0.60479 -0.52213,-0.81586 0.0387,-0.17004 0.22627,-0.26544 0.3394,-0.39816 0.37397,-0.0483 0.74486,-0.13951 1.1219,-0.14507 2.13089,-0.0314 4.3962,0.0245 6.54574,0.20693 2.40393,0.20398 4.80326,0.50592 7.20039,0.77656 -1.72266,0.2001 4.1007,0.20325 3.07627,0.31861 -0.62139,0.07 -1.25785,0.0506 -1.87534,-0.0481 -0.14591,-0.0233 0.29047,-0.0901 0.40176,-0.18733 0.19233,-0.16797 0.12289,-0.45179 0.1148,-0.65561 -0.16235,-0.51165 -0.0606,-0.26423 -0.30521,-0.74225 0,0 2.86686,-0.1282 2.86686,-0.1282 l 0,0 c 0.24697,0.54816 0.14408,0.26233 0.30494,0.85881 0.0132,0.31918 0.09,0.68678 -0.14491,0.96885 -0.12282,0.14744 -0.29361,0.29468 -0.48486,0.31036 -1.17734,0.0965 -2.36285,0.0474 -3.54382,0.0198 -0.4126,-0.01 -2.6849,-0.3234 -2.89457,-0.35107 -2.38922,-0.2882 -4.78347,-0.58716 -7.18417,-0.76431 -0.76812,-0.0567 -1.54378,-0.0203 -2.30752,-0.11989 -0.3118,-0.0407 1.21423,0.0982 0.94152,-0.0583 -0.28108,-0.16135 -0.64763,0.0274 -0.97145,0.0411 -0.10774,-0.005 -0.26074,-0.10385 -0.32322,-0.0159 -0.0625,0.0879 0.0632,0.20913 0.12149,0.29988 0.4725,0.73565 1.26903,1.21469 1.915,1.77432 0.25626,0.18439 0.68491,0.51364 0.98381,0.65486 0.11832,0.0559 0.50544,0.10223 0.37524,0.11545 -0.85096,0.0864 -1.70919,0.0711 -2.56379,0.1067 0.0722,-0.0266 0.17208,-0.017 0.21645,-0.0798 0.0772,-0.10926 0.0748,-0.25689 0.11215,-0.38534 0.0614,-0.85185 0.0235,-1.69637 0.0487,-2.54965 0.0311,-1.05372 0.0996,-2.11247 0.25143,-3.15594 0.54127,-1.49993 0.1157,-0.88978 3.34883,-0.50492 0.16031,0.0191 0.23809,0.21959 0.34061,0.3443 0.55445,0.67442 0.91548,1.47867 1.29461,2.25668 0.28973,0.62441 0.91762,1.76381 0.98003,2.45895 0.0153,0.17105 0.0971,0.48052 -0.0721,0.51017 -2.29722,0.40255 -2.35092,0.31875 -3.71024,-0.12353 -3.00805,-1.25931 -6.03163,-2.47704 -9.07893,-3.63891 -1.61417,-0.68131 -3.21889,-1.38221 -4.82656,-2.07857 -0.3813,-0.16516 -0.7608,-0.33461 -1.14458,-0.49395 -0.26878,-0.11159 -1.0887,-0.2261 -0.81281,-0.31873 0.79634,-0.26737 1.67174,-0.16687 2.50761,-0.2503 -0.16705,-0.0711 -0.1283,-0.0721 0.0889,0.29291 0.11844,0.1991 0.25011,0.39011 0.3808,0.5814 1.67863,2.45707 -0.67583,-1.04272 1.36777,1.92171 0.28889,0.41907 0.56333,0.84793 0.84499,1.2719 0.69237,1.09228 1.03849,1.60923 1.67658,2.73093 0.92779,1.63094 1.76856,3.31043 2.67376,4.95371 0.17389,0.34149 0.58313,1.10552 0.72301,1.51008 0.0584,0.16892 0.28999,0.47183 0.11871,0.52289 -0.96191,0.28678 -1.99169,0.25961 -2.99268,0.33393 -0.10048,0.007 -0.20012,-0.0419 -0.28847,-0.0903 -0.18214,-0.0999 -0.34353,-0.23369 -0.5153,-0.35053 -1.01415,-0.81184 -1.96302,-1.6829 -2.93289,-2.54694 -1.04259,-0.92883 -2.11249,-1.83061 -3.07649,-2.84385 0.88315,-0.12948 1.7644,-0.27267 2.64945,-0.38844 0.018,-0.002 -0.0349,0.0285 -0.0294,0.0457 0.041,0.12875 0.10425,0.24946 0.16239,0.37144 0.40115,0.84159 0.87476,1.64636 1.31219,2.46888 1.05593,1.98621 2.06117,4.0046 3.31471,5.87715 0,0 -2.89922,0.13452 -2.89922,0.13452 z"
       inkscape:connector-curvature="0" />
    <path
       style="fill:#008080;fill-opacity:1;fill-rule:nonzero;stroke:#ffffff;stroke-width:0;stroke-linecap:round;stroke-linejoin:round;stroke-miterlimit:4;stroke-opacity:1;stroke-dasharray:none;stroke-dashoffset:10"
       id="path4107"
       d="m 178.16421,200.44863 c 1.15463,0.0349 2.27975,0.33795 3.4316,0.41131 0.38765,0.0247 0.77674,0.0144 1.16511,0.0216 -0.44553,-0.0193 -1.44827,0.37384 -1.33658,-0.0579 0.11712,-0.45274 0.93017,-0.0988 1.3935,-0.16215 1.15736,-0.15816 2.33456,-0.35318 3.44606,-0.72394 0.28385,-0.0947 0.55722,-0.2183 0.83583,-0.32745 1.75173,-0.85232 2.39352,-1.98621 3.05711,-3.74849 0.21662,-0.83933 0.37861,-1.71646 0.12176,-2.56648 -0.0446,-0.1476 -0.11454,-0.28632 -0.1718,-0.42948 0,0 2.85622,-0.1 2.85622,-0.1 l 0,0 c 0.0527,0.15828 0.11859,0.31278 0.15817,0.47485 0.22273,0.91226 0.0607,1.83234 -0.18764,2.72108 -0.66985,1.78002 -1.30834,3.08673 -3.08385,3.97736 -0.2879,0.11746 -0.56958,0.25151 -0.86371,0.35237 -1.13653,0.38973 -2.34092,0.58106 -3.52506,0.75518 -0.46021,0.0677 -0.91858,0.16269 -1.38323,0.1845 -1.33192,0.0625 -2.66639,0.0454 -3.99958,0.0682 -0.3997,-0.0136 -0.80019,-0.0123 -1.19911,-0.0408 -1.20806,-0.0862 -2.40127,-0.34637 -3.61275,-0.39971 0,0 2.89795,-0.41005 2.89795,-0.41005 z"
       inkscape:connector-curvature="0" />
    <path
       style="fill:#008080;fill-opacity:1;fill-rule:nonzero;stroke:#ffffff;stroke-width:0;stroke-linecap:round;stroke-linejoin:round;stroke-miterlimit:4;stroke-opacity:1;stroke-dasharray:none;stroke-dashoffset:10"
       id="path4109"
       d="m 157.13382,176.61881 c -1.36147,0.087 -2.66447,0.28962 -3.98481,0.63578 -1.20244,0.41685 -2.59136,0.90099 -3.50835,1.834 -0.13742,0.13982 -0.24359,0.30723 -0.36539,0.46084 -0.15804,0.2897 -0.35907,0.57323 -0.38046,0.91873 -0.0556,0.89828 0.98365,1.46843 1.59283,1.88209 1.61082,0.82383 3.30422,1.52925 5.03666,2.05863 1.01224,0.30931 1.42924,0.36466 2.44409,0.5623 2.89213,0.0957 -0.41053,0.0747 -0.61477,0.0509 -0.2995,-0.0349 0.60156,-0.0453 0.90098,-0.0809 0.76828,-0.0914 0.74331,-0.10727 1.44422,-0.28464 0,0 2.79241,0.3681 2.79241,0.3681 l 0,0 c -0.22569,0.0629 -0.44801,0.13944 -0.67706,0.18869 -2.13954,0.46005 -4.37411,0.33199 -6.53657,0.12812 -0.38028,-0.0826 -0.76357,-0.15238 -1.14083,-0.24784 -1.03691,-0.26238 -1.60274,-0.46729 -2.62149,-0.84376 -0.65728,-0.24289 -2.06153,-0.78365 -2.71709,-1.08628 -0.36089,-0.16659 -0.70654,-0.36437 -1.05982,-0.54655 -0.75099,-0.52436 -1.76899,-1.1532 -1.69715,-2.22506 0.0261,-0.38996 0.23443,-0.69374 0.4095,-1.02554 0.1258,-0.17428 0.23151,-0.36499 0.37741,-0.52283 0.86739,-0.93837 2.40163,-1.51991 3.57081,-1.94878 0.28577,-0.0834 0.56871,-0.17724 0.8573,-0.2503 0.98706,-0.24988 1.99895,-0.29863 2.99589,-0.48219 0,0 2.88169,0.45642 2.88169,0.45642 z"
       inkscape:connector-curvature="0" />
    <path
       style="fill:#008080;fill-opacity:1;fill-rule:nonzero;stroke:#ffffff;stroke-width:0;stroke-linecap:round;stroke-linejoin:round;stroke-miterlimit:4;stroke-opacity:1;stroke-dasharray:none;stroke-dashoffset:10"
       id="path4111"
       d="m 205.80726,174.17437 c 0.0853,-0.0686 0.17423,-0.13307 0.256,-0.20592 0.48768,-0.43451 0.95068,-0.8889 1.45618,-1.30492 0.72384,-0.5957 1.02492,-0.80902 1.81044,-1.40312 2.23894,-1.51023 4.67446,-2.75126 7.23335,-3.62367 0.38331,-0.13068 0.77549,-0.23373 1.16324,-0.3506 0.30208,-0.0666 0.6004,-0.15344 0.90624,-0.19978 1.085,-0.1644 3.90423,0.18902 4.01963,0.21754 0.22643,0.056 0.23297,0.40932 0.29683,0.63365 0.1797,0.63126 0.11972,1.19828 0.11143,1.84641 0,0 -2.75704,0.001 -2.75704,0.001 l 0,0 c -0.0129,-0.60661 0.0361,-1.12949 -0.18232,-1.70583 -0.0622,-0.16402 -0.45771,-0.38821 -0.28988,-0.43916 0.72749,-0.22083 1.51956,-0.0774 2.27496,-0.16343 0.56492,-0.0643 -2.64851,0.009 -1.69833,0.15855 -0.40519,0.10818 -0.81543,0.19901 -1.21559,0.32454 -2.55415,0.80123 -4.97462,2.02897 -7.17457,3.54615 -0.9374,0.74782 -1.91571,1.48543 -2.75532,2.34694 -0.11248,0.11542 -0.20817,0.24631 -0.31915,0.36317 -0.0719,0.0757 -0.15251,0.14251 -0.22877,0.21377 0,0 -2.90733,-0.25535 -2.90733,-0.25535 z"
       inkscape:connector-curvature="0" />
    <g
       id="text2995-8"
       style="font-size:47.05975342px;font-style:normal;font-variant:normal;font-weight:normal;font-stretch:normal;text-align:start;line-height:100%;letter-spacing:0px;word-spacing:0px;writing-mode:lr-tb;text-anchor:start;fill:#000000;fill-opacity:0;stroke:none;font-family:Nimbus Sans L;-inkscape-font-specification:Nimbus Sans L"
       transform="matrix(2.8542188,0,0,2.8542188,-533.54299,-306.35284)" />
    <path
       d="m 188.4837,260.92486 c -8.32827,0 -28.00208,-2.0435 -34.92547,1.53007 -1.71157,-0.0344 -7.06687,5.27861 -7.4773,6.06173 -9.91948,13.27032 1.80441,3.74318 0.09,4.34778 -25.2159,8.8923 -10.66475,1.73921 2.43639,17.50294 4.77893,5.75017 7.89927,11.40318 12.31538,15.60059 4.41604,4.19751 11.61431,7.21956 21.49583,9.18705 l 8.02749,1.6055 c 6.73337,1.35549 11.60914,3.35439 14.53869,6.06522 2.97314,2.7109 4.45965,6.51811 4.45972,11.32767 -7e-5,5.50919 -2.04445,9.78162 -6.15442,12.7548 -4.11005,2.97321 -10.00713,4.45972 -17.57128,4.45972 -4.98453,0 -10.00366,-0.78872 -15.16304,-2.31905 -5.1594,-1.53029 -10.40938,-3.85104 -15.78738,-6.86798 l 0,6.60038 c 8.94078,8.05536 20.73352,13.02238 33.71544,13.02238 8.14596,0 15.84376,-1.92317 22.65536,-5.35166 0.0568,-0.0342 0.12224,-0.0546 0.17832,-0.089 0.82312,-0.5059 1.66652,-1.03258 2.40826,-1.6055 6.38357,-4.89702 9.54373,-12.09698 9.54378,-21.58503 -5e-5,-7.95767 -2.32427,-14.27621 -7.04634,-18.99841 -4.67849,-4.76585 -11.97116,-8.10964 -21.85263,-9.98979 l -8.02749,-1.6055 c -7.25816,-1.35534 -12.18285,-3.1654 -14.80626,-5.35166 -2.57969,-2.22982 -3.92458,-5.48266 -3.92453,-9.81138 -5e-5,-5.15928 1.9954,-9.15365 5.8868,-11.95204 3.93513,-2.79819 9.46496,-4.192 16.67936,-4.1921 4.15368,10e-5 8.47333,0.60344 12.93317,1.78389 4.45974,1.18061 9.24281,2.94692 14.27109,5.35163 l 0,-8.38424 c -8.1921,-5.74538 -18.1332,-9.09783 -28.89897,-9.09783 z"
       id="path2993-6-2"
       style="fill:#008080;fill-opacity:1;fill-rule:nonzero;stroke:#333333;stroke-width:0;stroke-linecap:round;stroke-linejoin:round;stroke-miterlimit:4;stroke-opacity:1;stroke-dashoffset:10"
       inkscape:connector-curvature="0"
       sodipodi:nodetypes="cccsscccccsssccscccccccccccccccc" />
    <text
       x="202.89041"
       y="360.43365"
       id="text3127-6-7"
       xml:space="preserve"
       style="font-size:158.00869751px;font-style:normal;font-variant:normal;font-weight:normal;font-stretch:normal;text-align:start;line-height:100%;letter-spacing:0px;word-spacing:0px;writing-mode:lr-tb;text-anchor:start;fill:#008080;fill-opacity:1;stroke:none;font-family:Cabin;-inkscape-font-specification:Cabin"
       sodipodi:linespacing="100%"><tspan
         x="202.89041"
         y="360.43365"
         id="tspan3129-8-2"
         style="font-size:137.00250244px;letter-spacing:-5.70843744px;fill:#008080;font-family:lato;-inkscape-font-specification:lato"> ealious</tspan></text>
    <text
       x="241.37318"
       y="539.11395"
       id="text3288-8"
       xml:space="preserve"
       style="font-size:158.00869751px;font-style:normal;font-variant:normal;font-weight:normal;font-stretch:normal;text-align:start;line-height:100%;letter-spacing:0px;word-spacing:0px;writing-mode:lr-tb;text-anchor:start;fill:#000000;fill-opacity:1;stroke:none;font-family:Rachana;-inkscape-font-specification:Rachana"
       sodipodi:linespacing="100%"><tspan
         x="241.37318"
         y="539.11395"
         id="tspan3290-6"
         style="font-style:normal;font-variant:normal;font-weight:bold;font-stretch:normal;font-family:Sawasdee;-inkscape-font-specification:Sawasdee Bold" /></text>
    <path
       sodipodi:type="arc"
       style="fill:#008080;fill-opacity:1;fill-rule:nonzero;stroke:#333333;stroke-width:0;stroke-linecap:round;stroke-linejoin:round;stroke-miterlimit:4;stroke-opacity:1;stroke-dasharray:none;stroke-dashoffset:10"
       id="path3185"
       sodipodi:cx="120.3277"
       sodipodi:cy="151.82051"
       sodipodi:rx="6.2010221"
       sodipodi:ry="6.2010221"
       d="m 126.52872,151.82051 a 6.2010221,6.2010221 0 1 1 -12.40204,0 6.2010221,6.2010221 0 1 1 12.40204,0 z"
       transform="matrix(0.60594307,0,0,0.60594307,58.941539,186.03287)" />
    <path
       style="fill:#008080;fill-opacity:1;fill-rule:nonzero;stroke:#333333;stroke-width:0;stroke-linecap:round;stroke-linejoin:round;stroke-miterlimit:4;stroke-opacity:1;stroke-dasharray:none;stroke-dashoffset:10"
       id="path3205"
       d="m 135.90451,275.46674 c -0.71971,-1.78471 -1.67525,-3.45767 -2.56649,-5.15895 -0.20691,-0.3939 -0.41383,-0.78781 -0.62075,-1.18172 0,0 1.78503,-0.34683 1.78503,-0.34683 l 0,0 c 0.20601,0.39388 0.41201,0.78775 0.61801,1.18164 1.21368,2.27763 0.0459,0.11339 1.28299,2.32791 0.45171,0.80861 0.87426,1.63345 1.3238,2.44308 0.063,0.11349 0.13292,0.22302 0.19939,0.33453 0,0 -2.02199,0.40026 -2.02199,0.40026 z"
       inkscape:connector-curvature="0" />
    <path
       style="fill:#008080;fill-opacity:1;fill-rule:nonzero;stroke:#333333;stroke-width:0;stroke-linecap:round;stroke-linejoin:round;stroke-miterlimit:4;stroke-opacity:1;stroke-dasharray:none;stroke-dashoffset:10"
       id="path3207"
       d="m 138.26338,274.49124 c -0.25113,-1.62498 -0.7181,-3.21611 -1.26921,-4.79094 -0.25631,-0.9092 -0.67127,-1.7804 -0.99352,-2.67441 -0.1596,-0.44277 -0.30258,-0.88927 -0.45839,-1.33292 0,0 1.93023,-0.035 1.93023,-0.035 l 0,0 c 0.11267,0.37778 0.28554,0.9668 0.40663,1.32908 0.29916,0.89502 0.66616,1.77507 0.92947,2.67794 0.54497,1.58294 1.02818,3.17743 1.50423,4.77398 0,0 -2.04943,0.0523 -2.04943,0.0523 z"
       inkscape:connector-curvature="0" />
    <path
       style="fill:#008080;fill-opacity:1;fill-rule:nonzero;stroke:#333333;stroke-width:0;stroke-linecap:round;stroke-linejoin:round;stroke-miterlimit:4;stroke-opacity:1;stroke-dasharray:none;stroke-dashoffset:10"
       id="path3209"
       d="m 138.36793,282.40278 c -1.10007,1.08441 -2.19061,2.17822 -3.31355,3.23935 -0.82924,0.75623 -0.42221,0.40134 -1.21764,1.06862 0,0 -1.84179,-0.60119 -1.84179,-0.60119 l 0,0 c 0.82465,-0.64322 0.40525,-0.29748 1.25356,-1.04286 1.11684,-1.02772 2.17929,-2.11409 3.15736,-3.27584 0,0 1.96206,0.61192 1.96206,0.61192 z"
       inkscape:connector-curvature="0" />
    <path
       style="fill:#008080;fill-opacity:1;fill-rule:nonzero;stroke:#333333;stroke-width:0;stroke-linecap:round;stroke-linejoin:round;stroke-miterlimit:4;stroke-opacity:1;stroke-dasharray:none;stroke-dashoffset:10"
       id="path3219"
       d="m 135.88045,290.00495 c 0.92506,-1.70863 1.46724,-3.59676 2.02043,-5.45015 0.0935,-0.35256 0.18696,-0.70512 0.28044,-1.05767 0,0 1.86458,-0.0665 1.86458,-0.0665 l 0,0 c -0.10917,0.35344 -0.21836,0.70688 -0.32753,1.06032 -0.5318,1.85118 -1.05607,3.71031 -1.78924,5.49434 0,0 -2.04869,0.0196 -2.04869,0.0196 z"
       inkscape:connector-curvature="0" />
    <path
       sodipodi:type="arc"
       style="fill:#ffffff;fill-opacity:1;fill-rule:nonzero;stroke:#333333;stroke-width:0;stroke-linecap:round;stroke-linejoin:round;stroke-miterlimit:4;stroke-opacity:1;stroke-dasharray:none;stroke-dashoffset:10"
       id="path3185-7"
       sodipodi:cx="120.3277"
       sodipodi:cy="151.82051"
       sodipodi:rx="6.2010221"
       sodipodi:ry="6.2010221"
       d="m 126.52872,151.82051 a 6.2010221,6.2010221 0 1 1 -12.40204,0 6.2010221,6.2010221 0 1 1 12.40204,0 z"
       transform="matrix(0.23515657,0,0,0.35875207,123.54493,216.40899)" />
    <path
       style="fill:none;stroke:#ffffff;stroke-width:1.10011566px;stroke-linecap:butt;stroke-linejoin:miter;stroke-opacity:1"
       d="m 140.8494,288.74347 c 20.54873,-0.0554 11.76761,-22.1902 13.42239,-0.15743"
       id="path4023"
       inkscape:connector-curvature="0" />
  </g>
</svg>
