<?xml version="1.0" encoding="UTF-8" standalone="no"?>
<!-- Created with Inkscape (http://www.inkscape.org/) -->

<svg
   xmlns:dc="http://purl.org/dc/elements/1.1/"
   xmlns:cc="http://creativecommons.org/ns#"
   xmlns:rdf="http://www.w3.org/1999/02/22-rdf-syntax-ns#"
   xmlns:svg="http://www.w3.org/2000/svg"
   xmlns="http://www.w3.org/2000/svg"
   xmlns:xlink="http://www.w3.org/1999/xlink"
   xmlns:sodipodi="http://sodipodi.sourceforge.net/DTD/sodipodi-0.dtd"
   xmlns:inkscape="http://www.inkscape.org/namespaces/inkscape"
   version="1.1"
   width="744.09448"
   height="1052.3622"
   id="svg2"
   inkscape:version="0.48.4 r9939"
   sodipodi:docname="drawing.svg">
  <sodipodi:namedview
     pagecolor="#ffffff"
     bordercolor="#666666"
     borderopacity="1"
     objecttolerance="10"
     gridtolerance="10"
     guidetolerance="10"
     inkscape:pageopacity="0"
     inkscape:pageshadow="2"
     inkscape:window-width="1280"
     inkscape:window-height="749"
     id="namedview48"
     showgrid="false"
     inkscape:zoom="0.63429569"
     inkscape:cx="-67.651684"
     inkscape:cy="609.72397"
     inkscape:window-x="0"
     inkscape:window-y="25"
     inkscape:window-maximized="1"
     inkscape:current-layer="layer1" />
  <defs
     id="defs4">
    <linearGradient
       inkscape:collect="always"
       id="linearGradient3829">
      <stop
         style="stop-color:#000000;stop-opacity:1;"
         offset="0"
         id="stop3831" />
      <stop
         style="stop-color:#008080;stop-opacity:1"
         offset="1"
         id="stop3833" />
    </linearGradient>
    <linearGradient
       id="linearGradient3178">
      <stop
         id="stop3180"
         style="stop-color:#008080;stop-opacity:1"
         offset="0" />
      <stop
         id="stop3182"
         style="stop-color:#008080;stop-opacity:0"
         offset="1" />
    </linearGradient>
    <linearGradient
       id="linearGradient3080">
      <stop
         id="stop3082"
         style="stop-color:#000000;stop-opacity:1"
         offset="0" />
      <stop
         id="stop3084"
         style="stop-color:#000000;stop-opacity:0"
         offset="1" />
    </linearGradient>
    <linearGradient
       id="linearGradient3064">
      <stop
         id="stop3066"
         style="stop-color:#000000;stop-opacity:1"
         offset="0" />
      <stop
         id="stop3068"
         style="stop-color:#000000;stop-opacity:0"
         offset="1" />
    </linearGradient>
    <linearGradient
       x1="205.25424"
       y1="122.28245"
       x2="257.68332"
       y2="122.19663"
       id="linearGradient3070"
       xlink:href="#linearGradient3064"
       gradientUnits="userSpaceOnUse"
       gradientTransform="matrix(1.0247035,0,0,1.0247035,31.367402,-3.5826005)" />
    <linearGradient
       x1="232.61069"
       y1="121.1574"
       x2="257.68332"
       y2="122.19663"
       id="linearGradient3078"
       xlink:href="#linearGradient3080"
       gradientUnits="userSpaceOnUse"
       gradientTransform="matrix(1.0247035,0,0,1.0247035,31.367402,-3.5826005)" />
    <linearGradient
       x1="232.61069"
       y1="121.1574"
       x2="257.68332"
       y2="122.19663"
       id="linearGradient3094"
       xlink:href="#linearGradient3080"
       gradientUnits="userSpaceOnUse"
       gradientTransform="matrix(1.0247035,0,0,1.0247035,31.367402,-3.5826005)" />
    <linearGradient
       x1="220.37474"
       y1="138.09827"
       x2="199.98764"
       y2="142.95233"
       id="linearGradient3184"
       xlink:href="#linearGradient3178"
       gradientUnits="userSpaceOnUse"
       gradientTransform="matrix(2.8542188,0,0,2.8542188,-518.41362,341.00088)" />
    <linearGradient
       x1="222.41666"
       y1="120.69945"
       x2="227.51343"
       y2="118.02971"
       id="linearGradient3184-4"
       xlink:href="#linearGradient3178-5"
       gradientUnits="userSpaceOnUse"
       gradientTransform="matrix(2.8542188,0,0,2.8542188,-529.52304,181.49929)" />
    <linearGradient
       id="linearGradient3178-5">
      <stop
         id="stop3180-6"
         style="stop-color:#008080;stop-opacity:1"
         offset="0" />
      <stop
         id="stop3182-8"
         style="stop-color:#008080;stop-opacity:0"
         offset="1" />
    </linearGradient>
    <linearGradient
       x1="220.37474"
       y1="138.09827"
       x2="199.98764"
       y2="142.95233"
       id="linearGradient3184-44"
       xlink:href="#linearGradient3178-4"
       gradientUnits="userSpaceOnUse"
       gradientTransform="matrix(2.8542188,0,0,2.8542188,-519.92903,28.390274)" />
    <linearGradient
       id="linearGradient3178-4">
      <stop
         id="stop3180-0"
         style="stop-color:#008080;stop-opacity:1"
         offset="0" />
      <stop
         id="stop3182-7"
         style="stop-color:#008080;stop-opacity:0"
         offset="1" />
    </linearGradient>
    <linearGradient
       inkscape:collect="always"
       xlink:href="#linearGradient3829"
       id="linearGradient3835"
       x1="259.73691"
       y1="424.89456"
       x2="177.75621"
       y2="276.6987"
       gradientUnits="userSpaceOnUse"
       gradientTransform="matrix(2.8542188,0,0,2.8542188,-515.03876,-423.96918)" />
  </defs>
  <metadata
     id="metadata7">
    <rdf:RDF>
      <cc:Work
         rdf:about="">
        <dc:format>image/svg+xml</dc:format>
        <dc:type
           rdf:resource="http://purl.org/dc/dcmitype/StillImage" />
        <dc:title />
      </cc:Work>
    </rdf:RDF>
  </metadata>
  <g
     id="layer1">
    <path
       d="m 217.79647,622.31981 0,8.29506 c -5.02828,-2.40469 -9.81135,-4.17101 -14.27109,-5.35166 -4.45987,-1.18044 -8.77949,-1.78376 -12.9332,-1.78386 -3.60717,5e-5 -6.75641,0.37075 -9.54378,1.07033 -2.78737,0.69959 -5.16799,1.72272 -7.13555,3.12179 -1.9457,1.3992 -3.39767,3.09466 -4.37054,5.08407 -0.97286,1.98943 -1.51631,4.28834 -1.51629,6.86798 0,2.16435 0.33622,4.0688 0.98113,5.70844 0.64491,1.63963 1.65358,2.98801 2.94342,4.10294 1.31169,1.0931 3.14887,2.058 5.61924,2.9434 2.47038,0.88542 5.55794,1.73059 9.18703,2.40826 l 8.02749,1.60549 c 4.94072,0.94006 9.204,2.26305 12.84399,3.92456 3.63998,1.6615 6.66939,3.68231 9.00861,6.06521 2.36104,2.36109 4.08194,5.12512 5.26248,8.29506 1.18052,3.16995 1.78384,6.72452 1.78389,10.70333 -5e-5,4.74403 -0.81235,8.89095 -2.40826,12.48721 -0.79794,1.79812 -1.7465,3.48368 -2.9434,4.99488 -1.19693,1.5112 -2.59624,2.87869 -4.19215,4.10294 -2.33351,1.80243 -5.51278,2.96394 -8.65184,4.10294 19.66821,-6.88674 33.89385,-25.52124 33.89385,-47.54058 0,-17.07669 -8.60218,-32.07917 -21.58503,-41.20779 z"
       id="path3125"
       style="fill:#008080;fill-opacity:1;fill-rule:nonzero;stroke:none"
       inkscape:connector-curvature="0" />
    <path
       d="m 170.96942,616.52219 c -18.97602,7.24869 -32.55592,25.48206 -32.55592,47.00541 0,14.8376 6.57261,28.05157 16.76854,37.28324 l 0,-6.42199 c 5.378,3.01691 10.62798,5.33767 15.78738,6.86795 5.15938,1.53036 10.17854,2.31905 15.16304,2.31905 3.78208,0 7.16042,-0.41622 10.07898,-1.15951 2.91853,-0.74331 5.43728,-1.81357 7.49232,-3.3002 2.05498,-1.48658 3.61062,-3.32025 4.63811,-5.44085 1.02749,-2.12062 1.51627,-4.55937 1.51629,-7.31393 -2e-5,-2.40477 -0.41622,-4.54187 -1.15951,-6.422 -0.74332,-1.88012 -1.81365,-3.55023 -3.30021,-4.9057 -1.46474,-1.35541 -3.3819,-2.46202 -5.79762,-3.47857 -2.41573,-1.01656 -5.37438,-1.9089 -8.74104,-2.58664 l -8.02749,-1.6055 c -4.94078,-0.98373 -9.18039,-2.20491 -12.75481,-3.74617 -3.57439,-1.54123 -6.53301,-3.34211 -8.74105,-5.44084 -2.20803,-2.0987 -3.80167,-4.66297 -4.90567,-7.58153 -1.10401,-2.91854 -1.69471,-6.25135 -1.69471,-9.98977 0,-4.32857 0.79969,-8.1848 2.31906,-11.59526 1.51939,-3.41042 3.73998,-6.33793 6.77877,-8.83023 1.9909,-1.62114 4.65901,-2.56306 7.13554,-3.65696 z"
       id="path3123"
       style="fill:url(#linearGradient3184);fill-opacity:1;fill-rule:nonzero;stroke:none"
       inkscape:connector-curvature="0" />
    <path
       d="m 170.96942,616.52219 c -2.47653,1.0939 -5.14464,2.03582 -7.13554,3.65696 -3.03879,2.4923 -5.25938,5.41981 -6.77877,8.83023 -1.51937,3.41046 -2.31906,7.26669 -2.31906,11.59526 0,3.73842 0.5907,7.07123 1.69471,9.98977 1.104,2.91856 2.69764,5.48283 4.90567,7.58153 2.20804,2.09873 5.16666,3.89961 8.74105,5.44084 3.57442,1.54126 7.81403,2.76244 12.75481,3.74617 l 8.02749,1.6055 c 3.36666,0.67774 6.32531,1.57008 8.74104,2.58664 2.41572,1.01655 4.33288,2.12316 5.79762,3.47857 1.48656,1.35547 2.55689,3.02558 3.30021,4.9057 0.74329,1.88013 1.15949,4.01723 1.15951,6.422 -2e-5,2.75456 -0.4888,5.19331 -1.51629,7.31393 -1.02749,2.1206 -2.58313,3.95427 -4.63811,5.44085 -2.05504,1.48663 -4.57379,2.55689 -7.49232,3.3002 -2.91856,0.74329 -6.2969,1.15951 -10.07898,1.15951 -4.9845,0 -10.00366,-0.78869 -15.16304,-2.31905 -5.1594,-1.53028 -10.40938,-3.85104 -15.78738,-6.86795 l 0,6.42199 c 8.90996,8.06729 20.5816,13.15512 33.53707,13.20077 0.0605,1.9e-4 0.11781,0 0.17832,0 4.01447,-0.14192 7.73614,-0.53815 11.0601,-1.24872 1.90543,-0.42747 3.71281,-1.05841 5.53005,-1.69471 3.13905,-1.139 6.31832,-2.30051 8.65184,-4.10294 1.5959,-1.22425 2.99522,-2.59174 4.19214,-4.10294 1.1969,-1.5112 2.14546,-3.19676 2.94341,-4.99488 1.5959,-3.59626 2.40821,-7.74318 2.40826,-12.48721 -5e-5,-3.97881 -0.60337,-7.53338 -1.78389,-10.70333 -1.18055,-3.16994 -2.90144,-5.93397 -5.26248,-8.29506 -2.33922,-2.3829 -5.36863,-4.40371 -9.00862,-6.06521 -3.63998,-1.66151 -7.90326,-2.9845 -12.84399,-3.92456 l -8.02749,-1.60549 c -3.62909,-0.67767 -6.71664,-1.52284 -9.18703,-2.40826 -2.47036,-0.8854 -4.30754,-1.8503 -5.61923,-2.9434 -1.28984,-1.11493 -2.29852,-2.46331 -2.94343,-4.10294 -0.6449,-1.63964 -0.98112,-3.54409 -0.98112,-5.70844 -3e-5,-2.57964 0.54343,-4.87855 1.51629,-6.86798 0.97286,-1.98941 2.42484,-3.68487 4.37054,-5.08407 1.96756,-1.39907 4.34818,-2.4222 7.13554,-3.12179 2.78737,-0.69958 5.93661,-1.07028 9.54379,-1.07033 4.1537,1e-4 8.47333,0.60342 12.93319,1.78386 4.45974,1.18065 9.24281,2.94697 14.2711,5.35166 l 0,-8.29506 c -8.20153,-5.76668 -18.11134,-9.187 -28.89897,-9.187 -6.34098,0 -12.33757,1.25388 -17.92808,3.38938 z"
       id="path2993"
       style="fill:url(#linearGradient3835);fill-opacity:1;fill-rule:nonzero;stroke:none"
       inkscape:connector-curvature="0" />
    <g
       id="text2995"
       style="font-size:47.05975342px;font-style:normal;font-variant:normal;font-weight:normal;font-stretch:normal;text-align:start;line-height:100%;letter-spacing:0px;word-spacing:0px;writing-mode:lr-tb;text-anchor:start;fill:#000000;fill-opacity:0;stroke:none;font-family:Nimbus Sans L;-inkscape-font-specification:Nimbus Sans L"
       transform="matrix(2.8542188,0,0,2.8542188,-515.03876,-423.96918)" />
    <path
       d="m 188.46345,133.57921 c -8.32827,0 -16.17794,2.04568 -23.10133,5.61925 -0.66645,0.45334 -1.34282,0.92269 -1.96227,1.42711 -6.07762,4.98456 -9.09783,11.7683 -9.09783,20.42547 0,7.47681 2.18427,13.37387 6.60038,17.57128 4.41604,4.19751 11.61431,7.21956 21.49583,9.18705 l 8.02749,1.6055 c 6.73337,1.35549 11.60914,3.35439 14.53869,6.06522 2.97314,2.7109 4.45965,6.51811 4.45972,11.32767 -7e-5,5.50919 -2.04445,9.78162 -6.15442,12.7548 -4.11005,2.97321 -10.00713,4.45972 -17.57128,4.45972 -4.98453,0 -10.00366,-0.78872 -15.16304,-2.31905 -5.1594,-1.53029 -10.40938,-3.85104 -15.78738,-6.86798 l 0,6.60038 c 8.94078,8.05536 20.73352,13.02238 33.71544,13.02238 8.14596,0 15.84376,-1.92317 22.65536,-5.35166 0.0568,-0.0342 0.12224,-0.0546 0.17832,-0.089 0.82312,-0.5059 1.66652,-1.03258 2.40826,-1.6055 6.38357,-4.89702 9.54373,-12.09698 9.54378,-21.58503 -5e-5,-7.95767 -2.32427,-14.27621 -7.04634,-18.99841 -4.67849,-4.76585 -11.97116,-8.10964 -21.85263,-9.98979 l -8.02749,-1.6055 c -7.25816,-1.35534 -12.18285,-3.1654 -14.80626,-5.35166 -2.57969,-2.22982 -3.92458,-5.48266 -3.92453,-9.81138 -5e-5,-5.15928 1.9954,-9.15365 5.8868,-11.95204 3.93513,-2.79819 9.46496,-4.192 16.67936,-4.1921 4.15368,1e-4 8.47333,0.60344 12.93317,1.78389 4.45974,1.18061 9.24281,2.94692 14.27109,5.35163 l 0,-8.38424 c -8.1921,-5.74538 -18.1332,-9.09783 -28.89897,-9.09783 z"
       id="path2993-6"
       style="fill:#008080;fill-opacity:1;fill-rule:nonzero;stroke:#333333;stroke-width:0;stroke-linecap:round;stroke-linejoin:round;stroke-miterlimit:4;stroke-opacity:1;stroke-dashoffset:10"
       inkscape:connector-curvature="0" />
    <text
       x="202.87015"
       y="233.08803"
       id="text3127-6"
       xml:space="preserve"
       style="font-size:158.00869751px;font-style:normal;font-variant:normal;font-weight:normal;font-stretch:normal;text-align:start;line-height:100%;letter-spacing:0px;word-spacing:0px;writing-mode:lr-tb;text-anchor:start;fill:#008080;fill-opacity:1;stroke:none;font-family:Cabin;-inkscape-font-specification:Cabin"
       sodipodi:linespacing="100%"><tspan
         x="202.87015"
         y="233.08803"
         id="tspan3129-8"
         style="font-size:137.00250244px;letter-spacing:-5.70843744px;fill:#008080;font-family:lato;-inkscape-font-specification:lato"> ealious</tspan></text>
    <path
       d="m 206.68708,462.81825 0,8.29506 c -5.02828,-2.40469 -9.81135,-4.17104 -14.27109,-5.35166 -4.45987,-1.18044 -8.77949,-1.78379 -12.9332,-1.78389 -3.60717,8e-5 -6.75641,0.37078 -9.54378,1.07034 -2.78737,0.69958 -5.16801,1.72269 -7.13555,3.12181 -1.9457,1.39919 -3.39767,3.09466 -4.37053,5.08407 -0.97287,1.98942 -1.51632,4.28831 -1.5163,6.86797 0,2.16435 0.33622,4.06881 0.98113,5.70844 0.64491,1.63961 1.65358,2.98802 2.94343,4.10294 1.31168,1.09311 3.14884,2.058 5.61923,2.9434 2.47039,0.8854 5.55794,1.73057 9.18703,2.40826 l 8.02749,1.6055 c 4.94073,0.94005 9.204,2.26305 12.84399,3.92453 3.63998,1.6615 6.66939,3.68231 9.00861,6.06521 2.36104,2.36112 4.08194,5.12514 5.26248,8.29509 1.18052,3.16995 1.78384,6.72452 1.78389,10.70332 -5e-5,4.74402 -0.81235,8.89096 -2.40826,12.48721 -0.79794,1.79813 -1.7465,3.48369 -2.9434,4.99489 -1.19692,1.5112 -2.59624,2.87866 -4.19215,4.10294 -2.33351,1.80243 -5.51278,2.96394 -8.65184,4.10294 19.66821,-6.88675 33.89383,-25.52127 33.89383,-47.5406 0,-17.07667 -8.60216,-32.07915 -21.58501,-41.20777 z"
       id="path3125-2"
       style="fill:#008080;fill-opacity:1;fill-rule:nonzero;stroke:none"
       inkscape:connector-curvature="0" />
    <path
       d="m 159.86004,457.0206 c -18.97603,7.24867 -32.55593,25.48207 -32.55593,47.00542 0,14.83762 6.57261,28.05159 16.76854,37.28323 l 0,-6.42199 c 5.378,3.01694 10.62799,5.33769 15.78739,6.86798 5.15937,1.53033 10.17853,2.31905 15.16304,2.31905 3.78207,0 7.16041,-0.41625 10.07897,-1.15954 2.91854,-0.74329 5.43728,-1.81357 7.49233,-3.30018 2.05497,-1.4866 3.61059,-3.32027 4.6381,-5.44086 1.02749,-2.1206 1.51627,-4.55936 1.51629,-7.31394 -2e-5,-2.40477 -0.41622,-4.54184 -1.15951,-6.42199 -0.74332,-1.88013 -1.81365,-3.55022 -3.3002,-4.90568 -1.46477,-1.35542 -3.38191,-2.46203 -5.79762,-3.47859 -2.41574,-1.01655 -5.37439,-1.90888 -8.74105,-2.58663 l -8.02749,-1.6055 c -4.94078,-0.98373 -9.18039,-2.2049 -12.75481,-3.74616 -3.57439,-1.54125 -6.53301,-3.34211 -8.74104,-5.44087 -2.20806,-2.0987 -3.80168,-4.66294 -4.90568,-7.5815 -1.104,-2.91856 -1.69471,-6.25138 -1.69471,-9.98977 0,-4.3286 0.79969,-8.1848 2.31906,-11.59527 1.51939,-3.41044 3.73999,-6.33795 6.77877,-8.83023 1.9909,-1.62114 4.65901,-2.56308 7.13555,-3.65698 z"
       id="path3123-1"
       style="fill:url(#linearGradient3184-4);fill-opacity:1;fill-rule:nonzero;stroke:none"
       inkscape:connector-curvature="0" />
    <path
       d="m 159.86004,457.0206 c -2.47654,1.0939 -5.14465,2.03584 -7.13555,3.65698 -3.03878,2.49228 -5.25938,5.41979 -6.77877,8.83023 -1.51937,3.41047 -2.31906,7.26667 -2.31906,11.59527 0,3.73839 0.59071,7.07121 1.69471,9.98977 1.104,2.91856 2.69762,5.4828 4.90568,7.5815 2.20803,2.09876 5.16665,3.89962 8.74104,5.44087 3.57442,1.54126 7.81403,2.76243 12.75481,3.74616 l 8.02749,1.6055 c 3.36666,0.67775 6.32531,1.57008 8.74105,2.58663 2.41571,1.01656 4.33285,2.12317 5.79762,3.47859 1.48655,1.35546 2.55688,3.02555 3.3002,4.90568 0.74329,1.88015 1.15949,4.01722 1.15951,6.42199 -2e-5,2.75458 -0.4888,5.19334 -1.51629,7.31394 -1.02751,2.12059 -2.58313,3.95426 -4.6381,5.44086 -2.05505,1.48661 -4.57379,2.55689 -7.49233,3.30018 -2.91856,0.74329 -6.2969,1.15954 -10.07897,1.15954 -4.98451,0 -10.00367,-0.78872 -15.16304,-2.31905 -5.1594,-1.53029 -10.40939,-3.85104 -15.78739,-6.86798 l 0,6.42199 c 8.90996,8.06732 20.5816,13.15514 33.53707,13.20077 0.0605,2e-4 0.11782,0 0.17832,0 4.01447,-0.14192 7.73611,-0.53814 11.0601,-1.24872 1.90544,-0.42744 3.71281,-1.05841 5.53005,-1.69468 3.13905,-1.139 6.31832,-2.30051 8.65184,-4.10294 1.5959,-1.22428 2.99522,-2.59174 4.19215,-4.10294 1.19689,-1.5112 2.14546,-3.19676 2.9434,-4.99489 1.5959,-3.59625 2.40821,-7.74319 2.40826,-12.48721 -5e-5,-3.9788 -0.60337,-7.53337 -1.78389,-10.70332 -1.18054,-3.16995 -2.90144,-5.93397 -5.26248,-8.29509 -2.33922,-2.3829 -5.36863,-4.40371 -9.00862,-6.06521 -3.63998,-1.66148 -7.90326,-2.98448 -12.84398,-3.92453 l -8.0275,-1.6055 c -3.62908,-0.67769 -6.71664,-1.52286 -9.18703,-2.40826 -2.47038,-0.8854 -4.30754,-1.85029 -5.61923,-2.9434 -1.28984,-1.11492 -2.29851,-2.46333 -2.94342,-4.10294 -0.64491,-1.63963 -0.98113,-3.54409 -0.98113,-5.70844 -2e-5,-2.57966 0.54343,-4.87855 1.51629,-6.86797 0.97286,-1.98941 2.42484,-3.68488 4.37054,-5.08407 1.96754,-1.39912 4.34818,-2.42223 7.13555,-3.12181 2.78737,-0.69956 5.9366,-1.07026 9.54378,-1.07034 4.1537,1e-4 8.47333,0.60345 12.93319,1.78389 4.45975,1.18062 9.24282,2.94697 14.2711,5.35166 l 0,-8.29506 c -8.20153,-5.76671 -18.11134,-9.18703 -28.89897,-9.18703 -6.34098,0 -12.33757,1.25386 -17.92808,3.38938 z"
       id="path2993-2"
       style="fill:#000000;fill-opacity:1;fill-rule:nonzero;stroke:none"
       inkscape:connector-curvature="0" />
    <text
       x="196.40982"
       y="553.14008"
       id="text3127-1"
       xml:space="preserve"
       style="font-size:158.00869751px;font-style:normal;font-variant:normal;font-weight:normal;font-stretch:normal;text-align:start;line-height:100%;letter-spacing:0px;word-spacing:0px;writing-mode:lr-tb;text-anchor:start;fill:#000000;fill-opacity:1;stroke:none;font-family:Cabin;-inkscape-font-specification:Cabin"
       sodipodi:linespacing="100%"><tspan
         x="196.40982"
         y="553.14008"
         id="tspan3129-3"
         style="font-size:137.00250244px;letter-spacing:-5.70843744px;font-family:lato;-inkscape-font-specification:lato"> ealious</tspan></text>
    <path
       d="m 216.28107,309.70924 0,8.29506 c -5.02826,-2.40469 -9.81133,-4.17104 -14.2711,-5.35166 -4.45984,-1.18044 -8.77949,-1.78379 -12.93317,-1.78389 -3.6072,8e-5 -6.75641,0.37078 -9.54381,1.07034 -2.78737,0.69958 -5.16798,1.72269 -7.13552,3.12181 -1.9457,1.39919 -3.39768,3.09466 -4.37054,5.08407 -0.97286,1.98942 -1.51634,4.28833 -1.51629,6.86797 0,2.16435 0.33622,4.06881 0.98113,5.70844 0.64491,1.63964 1.65355,2.98802 2.94342,4.10294 1.31169,1.09311 3.14885,2.058 5.61923,2.9434 2.47039,0.8854 5.55795,1.73057 9.18701,2.40826 l 8.02749,1.6055 c 4.94075,0.94005 9.204,2.26305 12.84399,3.92455 3.63998,1.6615 6.6694,3.68232 9.00864,6.06522 2.36104,2.36109 4.08194,5.12511 5.26246,8.29506 1.18054,3.16995 1.78386,6.72452 1.78388,10.70332 -2e-5,4.74404 -0.81233,8.89096 -2.40823,12.48721 -0.79797,1.79813 -1.74651,3.48369 -2.94343,4.99489 -1.1969,1.5112 -2.59621,2.87866 -4.19212,4.10294 -2.33354,1.80243 -5.51278,2.96393 -8.65187,4.10294 19.66824,-6.88675 33.89386,-25.52127 33.89386,-47.54058 0,-17.07669 -8.60216,-32.07917 -21.58503,-41.20779 z"
       id="path3125-0"
       style="fill:#008080;fill-opacity:1;fill-rule:nonzero;stroke:none"
       inkscape:connector-curvature="0" />
    <path
       d="m 169.45404,303.91159 c -18.97605,7.24867 -32.55592,25.48209 -32.55592,47.00544 0,14.8376 6.57261,28.05157 16.76853,37.28321 l 0,-6.42199 c 5.37801,3.01694 10.62799,5.33769 15.78739,6.86798 5.15938,1.53033 10.17851,2.31905 15.16304,2.31905 3.78207,0 7.16042,-0.41622 10.07895,-1.15954 2.91856,-0.74329 5.4373,-1.81355 7.49233,-3.30018 2.055,-1.48658 3.61062,-3.32024 4.6381,-5.44086 1.02749,-2.1206 1.5163,-4.55936 1.51632,-7.31392 -2e-5,-2.40476 -0.41622,-4.54186 -1.15954,-6.42199 -0.74329,-1.88015 -1.81362,-3.55024 -3.30018,-4.9057 -1.46476,-1.35542 -3.38191,-2.46203 -5.79764,-3.47857 -2.41571,-1.01657 -5.37436,-1.9089 -8.74105,-2.58665 l -8.02749,-1.6055 c -4.94075,-0.98373 -9.18039,-2.2049 -12.75478,-3.74616 -3.57439,-1.54125 -6.53302,-3.34211 -8.74105,-5.44084 -2.20805,-2.09871 -3.80167,-4.66297 -4.90567,-7.58153 -1.10403,-2.91854 -1.69471,-6.25136 -1.69471,-9.98977 0,-4.32858 0.79966,-8.1848 2.31905,-11.59527 1.51939,-3.41044 3.73997,-6.33792 6.77877,-8.83023 1.99091,-1.62114 4.65902,-2.56308 7.13555,-3.65698 z"
       id="path3123-7"
       style="fill:url(#linearGradient3184-44);fill-opacity:1;fill-rule:nonzero;stroke:none"
       inkscape:connector-curvature="0" />
    <path
       d="m 169.45404,303.91159 c -2.47653,1.0939 -5.14464,2.03584 -7.13555,3.65698 -3.0388,2.49231 -5.25938,5.41979 -6.77877,8.83023 -1.51939,3.41047 -2.31905,7.26669 -2.31905,11.59527 0,3.73841 0.59068,7.07123 1.69471,9.98977 1.104,2.91856 2.69762,5.48282 4.90567,7.58153 2.20803,2.09873 5.16666,3.89959 8.74105,5.44084 3.57439,1.54126 7.81403,2.76243 12.75478,3.74616 l 8.02749,1.6055 c 3.36669,0.67775 6.32534,1.57008 8.74105,2.58665 2.41573,1.01654 4.33288,2.12315 5.79764,3.47857 1.48656,1.35546 2.55689,3.02555 3.30018,4.9057 0.74332,1.88013 1.15952,4.01723 1.15954,6.42199 -2e-5,2.75456 -0.48883,5.19332 -1.51632,7.31392 -1.02748,2.12062 -2.5831,3.95428 -4.6381,5.44086 -2.05503,1.48663 -4.57377,2.55689 -7.49233,3.30018 -2.91853,0.74332 -6.29688,1.15954 -10.07895,1.15954 -4.98453,0 -10.00366,-0.78872 -15.16304,-2.31905 -5.1594,-1.53029 -10.40938,-3.85104 -15.78739,-6.86798 l 0,6.42199 c 8.90995,8.06732 20.5816,13.15514 33.53706,13.20077 0.0605,1.9e-4 0.11781,0 0.17831,0 4.0145,-0.14192 7.73614,-0.53812 11.0601,-1.24872 1.90546,-0.42744 3.71284,-1.05841 5.53005,-1.69468 3.13908,-1.13901 6.31833,-2.30051 8.65187,-4.10294 1.5959,-1.22428 2.99522,-2.59174 4.19212,-4.10294 1.19692,-1.5112 2.14546,-3.19676 2.94342,-4.99489 1.59591,-3.59625 2.40821,-7.74317 2.40824,-12.48721 -3e-5,-3.9788 -0.60335,-7.53337 -1.78389,-10.70332 -1.18052,-3.16995 -2.90142,-5.93397 -5.26245,-8.29506 -2.33925,-2.3829 -5.36866,-4.40372 -9.00864,-6.06522 -3.63999,-1.6615 -7.90324,-2.9845 -12.84399,-3.92455 l -8.02749,-1.6055 c -3.62907,-0.67769 -6.71662,-1.52286 -9.18701,-2.40826 -2.47039,-0.8854 -4.30755,-1.85029 -5.61923,-2.9434 -1.28987,-1.11492 -2.29852,-2.4633 -2.94343,-4.10294 -0.64491,-1.63963 -0.98112,-3.54409 -0.98112,-5.70844 -5e-5,-2.57964 0.54343,-4.87855 1.51629,-6.86797 0.97286,-1.98941 2.42484,-3.68488 4.37053,-5.08407 1.96754,-1.39912 4.34816,-2.42223 7.13553,-3.12181 2.78739,-0.69956 5.93661,-1.07026 9.54381,-1.07034 4.15368,1e-4 8.47332,0.60345 12.93317,1.78389 4.45976,1.18062 9.24283,2.94697 14.27109,5.35166 l 0,-8.29506 c -8.2015,-5.76671 -18.11133,-9.18703 -28.89897,-9.18703 -6.34095,0 -12.33755,1.25386 -17.92805,3.38938 z"
       id="path2993-5"
       style="fill:#ffffff;fill-opacity:1;fill-rule:nonzero;stroke:none"
       inkscape:connector-curvature="0" />
    <text
       x="259.87741"
       y="421.49765"
       id="text3288"
       xml:space="preserve"
       style="font-size:158.00869751px;font-style:normal;font-variant:normal;font-weight:normal;font-stretch:normal;text-align:start;line-height:100%;letter-spacing:0px;word-spacing:0px;writing-mode:lr-tb;text-anchor:start;fill:#000000;fill-opacity:1;stroke:none;font-family:Rachana;-inkscape-font-specification:Rachana"
       sodipodi:linespacing="100%"><tspan
         x="259.87741"
         y="421.49765"
         id="tspan3290"
         style="font-style:normal;font-variant:normal;font-weight:bold;font-stretch:normal;font-family:Sawasdee;-inkscape-font-specification:Sawasdee Bold" /></text>
    <text
       x="237.922"
       y="391.89587"
       id="text3296"
       xml:space="preserve"
       style="font-size:158.00869751px;font-style:normal;font-variant:normal;font-weight:normal;font-stretch:normal;text-align:start;line-height:100%;letter-spacing:0px;word-spacing:0px;writing-mode:lr-tb;text-anchor:start;fill:#008080;fill-opacity:1;stroke:none;font-family:Norasi;-inkscape-font-specification:Norasi"
       sodipodi:linespacing="100%"><tspan
         x="237.922"
         y="391.89587"
         id="tspan3298"
         style="font-size:137.00250244px;font-style:normal;font-variant:normal;font-weight:normal;font-stretch:normal;letter-spacing:-5.70843744px;fill:#008080;font-family:Lato;-inkscape-font-specification:Lato">ealious</tspan></text>
  </g>
</svg>
