<?xml version="1.0" encoding="UTF-8" standalone="no"?>
<!-- Created with Inkscape (http://www.inkscape.org/) -->

<svg
   xmlns:dc="http://purl.org/dc/elements/1.1/"
   xmlns:cc="http://creativecommons.org/ns#"
   xmlns:rdf="http://www.w3.org/1999/02/22-rdf-syntax-ns#"
   xmlns:svg="http://www.w3.org/2000/svg"
   xmlns="http://www.w3.org/2000/svg"
   xmlns:sodipodi="http://sodipodi.sourceforge.net/DTD/sodipodi-0.dtd"
   xmlns:inkscape="http://www.inkscape.org/namespaces/inkscape"
   width="384.98218"
   height="174.33249"
   id="svg2"
   version="1.1"
   inkscape:version="0.48.4 r9939"
   sodipodi:docname="fishes.svg">
  <defs
     id="defs4" />
  <sodipodi:namedview
     id="base"
     pagecolor="#ffffff"
     bordercolor="#666666"
     borderopacity="1.0"
     inkscape:pageopacity="0.0"
     inkscape:pageshadow="2"
     inkscape:zoom="1.4"
     inkscape:cx="182.48328"
     inkscape:cy="72.576079"
     inkscape:document-units="px"
     inkscape:current-layer="layer1"
     showgrid="false"
     inkscape:window-width="1280"
     inkscape:window-height="749"
     inkscape:window-x="0"
     inkscape:window-y="25"
     inkscape:window-maximized="1"
     fit-margin-top="0"
     fit-margin-left="0"
     fit-margin-right="0"
     fit-margin-bottom="0" />
  <metadata
     id="metadata7">
    <rdf:RDF>
      <cc:Work
         rdf:about="">
        <dc:format>image/svg+xml</dc:format>
        <dc:type
           rdf:resource="http://purl.org/dc/dcmitype/StillImage" />
        <dc:title />
      </cc:Work>
    </rdf:RDF>
  </metadata>
  <g
     inkscape:label="Layer 1"
     inkscape:groupmode="layer"
     id="layer1"
     transform="translate(48.571233,-714.81233)">
    <g
       id="g4066"
       transform="matrix(1.7907632,0,0,1.7907632,-115.08565,-634.17514)">
      <path
         sodipodi:nodetypes="ssssscscssssssssscsssscssssssccsccsscsscsssccssscssscsss"
         style="fill:#2b8c3f;fill-opacity:0.94117647"
         d="m 208.91975,836.47377 c -0.56388,-0.22753 -0.37987,-0.62718 0.96754,-2.10147 2.42187,-2.64992 3.4775,-5.9225 2.0879,-6.47277 -3.3281,-1.31791 -4.62594,-1.94082 -6.51963,-3.1292 -3.86992,-2.42854 -6.84817,-5.52327 -8.57451,-8.90987 -0.50253,-0.98584 -1.01158,-1.79288 -1.13122,-1.79341 -0.11963,0 -1.49458,1.33191 -3.05543,2.96099 -5.71572,5.96554 -13.69957,11.61563 -16.45455,11.6447 -0.82728,0.009 -0.77503,-0.75252 0.13285,-1.93529 3.91567,-5.10139 6.90019,-9.87148 8.18384,-13.08012 0.76954,-1.92354 1.44745,-5.19629 1.44738,-6.98755 -5e-5,-1.38525 -0.60674,-4.82047 -1.06479,-6.02899 -1.33685,-3.52725 -3.98524,-7.43845 -7.76006,-11.46017 -4.53521,-4.8319 1.74103,-2.26358 10.14698,4.15223 2.81863,2.15132 5.84306,5.01132 7.07694,6.69221 1.08049,1.47192 1.53574,1.60195 1.90453,0.54403 0.49117,-1.40896 2.63077,-4.44136 4.46436,-6.32723 3.07428,-3.1619 7.83405,-5.83512 13.26241,-7.44852 0.54356,-0.16157 0.82528,-0.43451 0.88575,-0.85823 0.12688,-0.88887 -1.35707,-3.74552 -2.75111,-5.29604 -1.71646,-1.90909 -1.64117,-2.02137 1.21928,-1.81833 4.47114,0.31737 7.83958,2.12032 10.55052,5.64717 0.82521,1.07358 0.86655,1.09138 2.90567,1.25021 2.37785,0.18524 7.23195,1.27985 9.21653,2.07838 4.10082,1.65005 7.38916,3.75206 10.16215,6.49602 6.69696,6.62685 7.77917,15.64706 2.8144,23.4582 -1.4715,2.31517 -5.49952,6.04461 -8.03562,7.44001 -2.10936,1.16059 -3.79453,1.9088 -4.81755,2.13897 -0.63826,0.14361 -1.6985,0.4542 -2.35608,0.69024 -0.65759,0.23604 -2.21187,0.60973 -3.45398,0.83046 -1.2421,0.22071 -2.91595,0.5223 -3.71966,0.67021 -0.80371,0.14788 -2.39501,0.2092 -3.53618,0.13624 l -2.07485,-0.13266 -0.78549,1.10514 c -1.71316,2.41024 -2.52049,3.27036 -3.94327,4.20107 -1.9849,1.2984 -6.02495,2.19622 -7.39505,1.64337 z m 30.41392,-27.59129 c 2.82323,-0.83841 5.12217,-3.94377 5.12217,-6.919 0,-2.48136 -1.82171,-5.48153 -4.05837,-6.68381 -1.21723,-0.65431 -5.29114,-0.64762 -6.51696,0.0106 -1.27658,0.68559 -2.94608,2.44855 -3.52395,3.72128 -0.70748,1.55817 -0.69207,4.42194 0.0319,5.91735 0.81562,1.68485 2.6606,3.34618 4.30161,3.87344 1.76339,0.56659 2.9371,0.58683 4.64365,0.08 z m -3.64181,-2.86449 c -1.77946,-0.87622 -2.7119,-2.37091 -2.73082,-4.37735 -0.0637,-6.76086 9.2813,-7.09683 10.07891,-0.36235 0.11374,0.96037 0.021,1.51303 -0.38703,2.30914 -1.40404,2.73868 -4.28936,3.74613 -6.96106,2.43056 z m 1.17281,-4.32549 c 0.56576,-0.56576 0.52511,-1.26261 -0.10705,-1.83469 -0.49123,-0.44456 -0.56725,-0.44679 -1.1956,-0.0351 -0.60303,0.39511 -1.76466,-0.40249 -1.87348,-0.28806 -0.10644,0.11194 -0.23115,0.52716 -0.26814,0.78097 -0.11586,0.79516 2.89689,1.92421 3.44427,1.37683 z"
         id="path3039"
         inkscape:connector-curvature="0" />
      <path
         sodipodi:nodetypes="ssssscscssssssssscsssscssssssccsccsscsscsssccssscssscsss"
         style="fill:#081e48;fill-opacity:1"
         d="m 104.94033,850.53265 c -0.41199,-0.16624 -0.27754,-0.45825 0.70693,-1.53542 1.76953,-1.93614 2.54081,-4.32722 1.52551,-4.72926 -2.43166,-0.96293 -3.37991,-1.41805 -4.76352,-2.28633 -2.827518,-1.77439 -5.003549,-4.03552 -6.264878,-6.50992 -0.367173,-0.72029 -0.739107,-1.30994 -0.826518,-1.31033 -0.08745,0 -1.091999,0.97315 -2.232421,2.16342 -4.176138,4.35867 -10.009467,8.48685 -12.022365,8.50809 -0.604449,0.007 -0.566265,-0.54982 0.09707,-1.414 2.86095,-3.72728 5.04156,-7.2125 5.979453,-9.55687 0.562254,-1.40542 1.057566,-3.79662 1.05752,-5.10538 -3.9e-5,-1.01213 -0.443317,-3.52204 -0.777989,-4.40504 -0.976758,-2.57714 -2.911771,-5.43483 -5.669812,-8.37325 -3.313608,-3.53039 1.272066,-1.65387 7.413793,3.03378 2.05941,1.57184 4.269185,3.66148 5.170704,4.8896 0.789453,1.07545 1.122069,1.17045 1.391532,0.3975 0.358859,-1.02945 1.922137,-3.24504 3.261842,-4.62293 2.246179,-2.31023 5.723869,-4.26338 9.690059,-5.4422 0.39714,-0.11805 0.60298,-0.31747 0.64716,-0.62705 0.0927,-0.64946 -0.99153,-2.73664 -2.01007,-3.86951 -1.25412,-1.39486 -1.19911,-1.4769 0.89086,-1.32854 3.2668,0.23187 5.72792,1.54918 7.70864,4.12605 0.60293,0.7844 0.63313,0.79741 2.123,0.91345 1.73735,0.13534 5.28396,0.93511 6.73397,1.51855 2.99622,1.2056 5.39882,2.7414 7.42488,4.74626 4.89308,4.84184 5.68378,11.43237 2.05632,17.13951 -1.07513,1.69156 -4.01818,4.41644 -5.87115,5.43598 -1.54119,0.84797 -2.77244,1.39464 -3.5199,1.56281 -0.46634,0.10493 -1.241,0.33186 -1.72145,0.50432 -0.48046,0.17246 -1.61608,0.44549 -2.52362,0.60677 -0.90752,0.16126 -2.13051,0.38161 -2.71774,0.48968 -0.58722,0.10804 -1.74988,0.15285 -2.58367,0.0995 l -1.51597,-0.0969 -0.57391,0.80747 c -1.2517,1.76102 -1.84157,2.38946 -2.88112,3.06947 -1.45025,0.94866 -4.40208,1.60465 -5.40314,1.20071 z M 127.162,830.37334 c 2.06276,-0.61258 3.74246,-2.88148 3.74246,-5.05531 0,-1.81298 -1.33101,-4.00503 -2.9652,-4.88347 -0.88935,-0.47805 -3.86593,-0.47318 -4.76156,0.008 -0.93272,0.50093 -2.15252,1.78901 -2.57474,2.71893 -0.51692,1.13846 -0.50565,3.23085 0.0232,4.32345 0.59593,1.23103 1.94395,2.44485 3.14294,2.83009 1.2884,0.41397 2.14597,0.42877 3.39283,0.0584 z m -2.66086,-2.09292 c -1.30014,-0.6402 -1.98142,-1.73228 -1.99524,-3.19827 -0.0466,-4.93976 6.78129,-5.18522 7.36406,-0.26475 0.0831,0.70168 0.0153,1.10548 -0.28278,1.68715 -1.02585,2.001 -3.13398,2.73708 -5.08604,1.77587 z m 0.85691,-3.16037 c 0.41336,-0.41337 0.38366,-0.92253 -0.0782,-1.34051 -0.35892,-0.32481 -0.41447,-0.32644 -0.87355,-0.0257 -0.44061,0.28869 -1.28935,-0.29408 -1.36885,-0.21046 -0.0778,0.0817 -0.16889,0.38515 -0.19592,0.5706 -0.0846,0.58098 2.11658,1.40591 2.51653,1.00597 z"
         id="path3039-7"
         inkscape:connector-curvature="0" />
      <path
         sodipodi:nodetypes="ssssscscssssssssscsssscssssssccsccsscsscsssccssscssscsss"
         style="fill:#0f1f3d;fill-opacity:1"
         d="m 129.09431,797.00974 c -0.42694,-0.17227 -0.28761,-0.47486 0.73257,-1.59112 1.83371,-2.00637 2.63298,-4.48419 1.58085,-4.90083 -2.51986,-0.99785 -3.50251,-1.46948 -4.93631,-2.36926 -2.9301,-1.83876 -5.18507,-4.18192 -6.49216,-6.74607 -0.38049,-0.74642 -0.76591,-1.35747 -0.8565,-1.35787 -0.0906,0 -1.13161,1.00845 -2.3134,2.2419 -4.32764,4.51678 -10.37257,8.79472 -12.4585,8.81673 -0.62637,0.007 -0.58681,-0.56976 0.10059,-1.46529 2.96473,-3.8625 5.22445,-7.47415 6.19636,-9.90356 0.58266,-1.4564 1.09593,-3.93435 1.09588,-5.29059 -4e-5,-1.04884 -0.45939,-3.6498 -0.8062,-4.56483 -1.01219,-2.67064 -3.01741,-5.63199 -5.8755,-8.67702 -3.43381,-3.65844 1.31821,-1.71385 7.68274,3.14385 2.13412,1.62886 4.42405,3.7943 5.35828,5.06697 0.81809,1.11446 1.16278,1.21291 1.44201,0.41191 0.37188,-1.06678 1.99187,-3.36275 3.38017,-4.79063 2.32768,-2.39402 5.93152,-4.41803 10.04158,-5.63961 0.41155,-0.12233 0.62485,-0.32899 0.67064,-0.6498 0.0961,-0.67301 -1.0275,-2.83591 -2.08299,-4.00988 -1.29961,-1.44546 -1.24261,-1.53047 0.92317,-1.37674 3.38531,0.2403 5.93571,1.60539 7.98829,4.27573 0.6248,0.81286 0.6561,0.82634 2.20001,0.94659 1.80038,0.14026 5.47564,0.96904 6.97826,1.57364 3.10492,1.24932 5.59467,2.84085 7.69423,4.91843 5.07058,5.01749 5.88997,11.8471 2.13091,17.76127 -1.11414,1.75292 -4.16394,4.57665 -6.08413,5.63318 -1.5971,0.87873 -2.87302,1.44524 -3.64759,1.61951 -0.48326,0.10873 -1.28601,0.34389 -1.7839,0.52261 -0.49789,0.17872 -1.67471,0.46165 -2.61516,0.62878 -0.94046,0.16711 -2.2078,0.39546 -2.81633,0.50745 -0.60853,0.11196 -1.81337,0.15839 -2.6774,0.10315 l -1.57097,-0.10044 -0.59473,0.83675 c -1.29711,1.8249 -1.90838,2.47614 -2.98564,3.18082 -1.50285,0.98308 -4.56176,1.66286 -5.59913,1.24427 z m 23.02778,-20.89063 c 2.1376,-0.6348 3.87823,-2.98601 3.87823,-5.23869 0,-1.87875 -1.3793,-4.15032 -3.07278,-5.06062 -0.92162,-0.49541 -4.00616,-0.49034 -4.93428,0.008 -0.96656,0.51909 -2.23062,1.85391 -2.66815,2.81755 -0.53566,1.17976 -0.524,3.34805 0.0241,4.4803 0.61755,1.27567 2.01447,2.53354 3.25695,2.93276 1.33514,0.42899 2.22381,0.44431 3.51592,0.0606 z m -2.75738,-2.16883 c -1.34731,-0.66343 -2.0533,-1.79513 -2.06763,-3.3143 -0.0482,-5.11895 7.0273,-5.37333 7.63121,-0.27435 0.0861,0.72714 0.0159,1.14559 -0.29304,1.74836 -1.06306,2.07358 -3.24767,2.83636 -5.27054,1.84029 z m 0.88799,-3.27503 c 0.42836,-0.42836 0.39758,-0.95598 -0.081,-1.38913 -0.37194,-0.33659 -0.42949,-0.33828 -0.90525,-0.0266 -0.45658,0.29915 -1.3361,-0.30475 -1.41849,-0.21811 -0.0806,0.0848 -0.17502,0.39914 -0.20303,0.59131 -0.0877,0.60205 2.19337,1.45691 2.60782,1.04246 z"
         id="path3039-7-5"
         inkscape:connector-curvature="0" />
      <path
         sodipodi:nodetypes="ssssscscssssssssscsssscssssssccsccsscsscsssccssscssscsss"
         style="fill:#081e48;fill-opacity:1"
         d="m 55.786236,806.34825 c -0.316011,-0.12751 -0.212882,-0.3515 0.542239,-1.17772 1.357289,-1.48509 1.948893,-3.31914 1.170119,-3.62752 -1.865163,-0.7386 -2.592508,-1.08769 -3.653786,-1.7537 -2.168804,-1.36102 -3.837897,-3.09538 -4.805382,-4.99333 -0.281634,-0.55249 -0.566921,-1.00477 -0.633968,-1.00507 -0.06708,0 -0.837603,0.74644 -1.712346,1.65941 -3.203249,3.34326 -7.67762,6.50972 -9.221585,6.52601 -0.463633,0.005 -0.434345,-0.42172 0.07446,-1.08459 2.19445,-2.85895 3.867056,-5.53224 4.586453,-7.33045 0.431269,-1.07801 0.811191,-2.91215 0.811156,-3.91601 -3e-5,-0.77634 -0.34004,-2.70153 -0.596745,-3.37882 -0.749209,-1.97676 -2.233433,-4.16871 -4.348948,-6.42259 -2.541655,-2.70793 0.97572,-1.26857 5.686643,2.32702 1.579641,1.20566 3.274619,2.80849 3.966116,3.7505 0.605539,0.82491 0.860667,0.89778 1.067355,0.30489 0.275257,-0.78962 1.474347,-2.48906 2.501949,-3.54595 1.722899,-1.77202 4.390413,-3.27016 7.432619,-4.17435 0.304622,-0.0906 0.46251,-0.24352 0.496392,-0.48098 0.07108,-0.49816 -0.760538,-2.0991 -1.541794,-2.96805 -0.961955,-1.0699 -0.919761,-1.13283 0.683321,-1.01904 2.505755,0.17786 4.393518,1.18828 5.912801,3.16483 0.462475,0.60166 0.485639,0.61164 1.628417,0.70065 1.332613,0.10381 4.052985,0.71726 5.165198,1.16478 2.298209,0.92474 4.14109,2.10275 5.695149,3.64055 3.753162,3.71387 4.35966,8.76904 1.577271,13.14662 -0.824668,1.29748 -3.082089,3.38756 -4.503383,4.16958 -1.182149,0.65043 -2.126563,1.06975 -2.69989,1.19874 -0.357699,0.0805 -0.951891,0.25455 -1.320413,0.38683 -0.368528,0.13228 -1.239589,0.3417 -1.935704,0.46541 -0.696103,0.1237 -1.634182,0.29271 -2.084604,0.37561 -0.450422,0.0829 -1.342224,0.11724 -1.981769,0.0763 l -1.162801,-0.0743 -0.44021,0.61936 c -0.960103,1.35076 -1.412554,1.83279 -2.209921,2.35439 -1.112396,0.72766 -3.376552,1.23082 -4.144396,0.92099 z m 17.044811,-15.46291 c 1.582212,-0.46987 2.870601,-2.2102 2.870601,-3.87761 0,-1.39062 -1.020937,-3.072 -2.274415,-3.74579 -0.682168,-0.36669 -2.965306,-0.36295 -3.652286,0.006 -0.715432,0.38422 -1.651064,1.37223 -1.974922,2.08551 -0.396492,0.87324 -0.387851,2.47818 0.01782,3.31624 0.457098,0.94424 1.491077,1.87529 2.410744,2.17078 0.988249,0.31753 1.646035,0.32888 2.602425,0.0448 z m -2.040974,-1.60535 c -0.997255,-0.49105 -1.519818,-1.32872 -1.530424,-2.45319 -0.03571,-3.78896 5.201492,-3.97725 5.648496,-0.20307 0.06377,0.53822 0.01176,0.84795 -0.216899,1.29411 -0.786861,1.53484 -2.403873,2.09943 -3.901173,1.36215 z m 0.65728,-2.42412 c 0.317063,-0.31707 0.294281,-0.70761 -0.06,-1.02821 -0.275305,-0.24915 -0.317911,-0.25039 -0.670045,-0.0197 -0.337963,0.22144 -0.988972,-0.22557 -1.049954,-0.16143 -0.05969,0.0627 -0.129547,0.29543 -0.150276,0.43767 -0.06492,0.44563 1.623494,1.07839 1.930263,0.77162 z"
         id="path3039-7-7"
         inkscape:connector-curvature="0" />
    </g>
  </g>
</svg>
