<?xml version="1.0" encoding="UTF-8" standalone="no"?>
<!-- Created with Inkscape (http://www.inkscape.org/) -->

<svg
   xmlns:dc="http://purl.org/dc/elements/1.1/"
   xmlns:cc="http://creativecommons.org/ns#"
   xmlns:rdf="http://www.w3.org/1999/02/22-rdf-syntax-ns#"
   xmlns:svg="http://www.w3.org/2000/svg"
   xmlns="http://www.w3.org/2000/svg"
   xmlns:sodipodi="http://sodipodi.sourceforge.net/DTD/sodipodi-0.dtd"
   xmlns:inkscape="http://www.inkscape.org/namespaces/inkscape"
   width="219.99272"
   height="561.20801"
   id="svg2"
   version="1.1"
   inkscape:version="0.48.4 r9939"
   sodipodi:docname="rocket-idle.svg">
  <defs
     id="defs4">
    <inkscape:path-effect
       effect="skeletal"
       id="path-effect4559"
       is_visible="true"
       pattern="M 0,0 0,10 10,5 z"
       copytype="single_stretched"
       prop_scale="1"
       scale_y_rel="false"
       spacing="0"
       normal_offset="0"
       tang_offset="0"
       prop_units="false"
       vertical_pattern="false"
       fuse_tolerance="0" />
    <inkscape:path-effect
       effect="spiro"
       id="path-effect4555"
       is_visible="true" />
    <inkscape:path-effect
       effect="spiro"
       id="path-effect4021"
       is_visible="true" />
    <inkscape:path-effect
       effect="skeletal"
       id="path-effect4009"
       is_visible="true"
       pattern="M 0,0 0,10 10,5 z"
       copytype="single_stretched"
       prop_scale="1"
       scale_y_rel="false"
       spacing="0"
       normal_offset="0"
       tang_offset="0"
       prop_units="false"
       vertical_pattern="false"
       fuse_tolerance="0" />
    <inkscape:path-effect
       effect="spiro"
       id="path-effect3967"
       is_visible="true" />
    <inkscape:path-effect
       effect="spiro"
       id="path-effect3963"
       is_visible="true" />
    <inkscape:path-effect
       effect="spiro"
       id="path-effect3959"
       is_visible="true" />
    <inkscape:path-effect
       effect="spiro"
       id="path-effect3951"
       is_visible="true" />
    <inkscape:path-effect
       effect="spiro"
       id="path-effect3939"
       is_visible="true" />
    <inkscape:path-effect
       effect="spiro"
       id="path-effect3929"
       is_visible="true" />
    <inkscape:path-effect
       effect="spiro"
       id="path-effect3925"
       is_visible="true" />
    <inkscape:path-effect
       effect="spiro"
       id="path-effect3921"
       is_visible="true" />
    <inkscape:path-effect
       effect="spiro"
       id="path-effect3917"
       is_visible="true" />
    <inkscape:path-effect
       effect="spiro"
       id="path-effect3803"
       is_visible="true" />
    <inkscape:path-effect
       effect="spiro"
       id="path-effect3959-4"
       is_visible="true" />
    <inkscape:path-effect
       effect="spiro"
       id="path-effect3959-0"
       is_visible="true" />
  </defs>
  <sodipodi:namedview
     id="base"
     pagecolor="#ffffff"
     bordercolor="#666666"
     borderopacity="1.0"
     inkscape:pageopacity="0"
     inkscape:pageshadow="2"
     inkscape:zoom="1"
     inkscape:cx="111.64149"
     inkscape:cy="264.36006"
     inkscape:document-units="px"
     inkscape:current-layer="layer1"
     showgrid="false"
     showguides="true"
     inkscape:guide-bbox="true"
     inkscape:window-width="1280"
     inkscape:window-height="800"
     inkscape:window-x="0"
     inkscape:window-y="25"
     inkscape:window-maximized="0"
     fit-margin-top="0"
     fit-margin-left="0"
     fit-margin-right="0"
     fit-margin-bottom="0">
    <inkscape:grid
       type="xygrid"
       id="grid4577"
       empspacing="5"
       visible="true"
       enabled="true"
       snapvisiblegridlinesonly="true"
       originx="-225.00476px"
       originy="-413.5121px" />
  </sodipodi:namedview>
  <metadata
     id="metadata7">
    <rdf:RDF>
      <cc:Work
         rdf:about="">
        <dc:format>image/svg+xml</dc:format>
        <dc:type
           rdf:resource="http://purl.org/dc/dcmitype/StillImage" />
        <dc:title></dc:title>
      </cc:Work>
    </rdf:RDF>
  </metadata>
  <g
     inkscape:label="Layer 1"
     inkscape:groupmode="layer"
     id="layer1"
     transform="translate(-225.00476,-77.642053)">
    <g
       id="g3444">
      <g
         id="g4625">
        <path
           sodipodi:type="star"
           style="fill:#ff7063;fill-opacity:1;stroke:none"
           id="path4508"
           sodipodi:sides="3"
           sodipodi:cx="213.28125"
           sodipodi:cy="85.174683"
           sodipodi:r1="48.926464"
           sodipodi:r2="24.463232"
           sodipodi:arg1="2.2430435"
           sodipodi:arg2="3.2902411"
           inkscape:flatsided="true"
           inkscape:rounded="1"
           inkscape:randomized="0"
           d="M 182.8125,123.45593 C 116.50743,70.68251 116.50743,70.68251 195.36309,39.647346 274.21875,8.6121811 274.21875,8.6121811 261.66816,92.420769 249.11757,176.22936 249.11757,176.22936 182.8125,123.45593 z"
           inkscape:transform-center-x="0.085593536"
           inkscape:transform-center-y="-15.278911"
           transform="matrix(0.78231514,-0.62077985,0.61945767,0.78398493,115.45915,222.77237)" />
        <rect
           style="fill:#ff7063;fill-opacity:1;fill-rule:nonzero;stroke:none"
           id="rect4512"
           width="140.00391"
           height="110.13004"
           x="264.99609"
           y="190.14236" />
        <path
           sodipodi:type="inkscape:offset"
           inkscape:radius="0"
           inkscape:original="M 266 294.4375 L 266 426.46875 L 348.96875 426.46875 L 348.96875 294.4375 L 266 294.4375 z "
           style="fill:#e6e6e6;fill-opacity:1;fill-rule:nonzero;stroke:none"
           id="path4516"
           d="m 266,294.4375 0,132.03125 82.96875,0 0,-132.03125 -82.96875,0 z"
           transform="matrix(1.6889693,0,0,1,-184.27643,0.87890625)" />
        <path
           style="fill:#b3b3b3;fill-opacity:1;stroke:none"
           d="m 265.00476,342.34346 -40,40 0,85 40,-40 z"
           id="path4597"
           inkscape:connector-curvature="0" />
        <path
           style="fill:#b3b3b3;fill-opacity:1;stroke:none"
           d="m 404.99748,342.36727 40,40 0,85 -40,-40 z"
           id="path4597-2"
           inkscape:connector-curvature="0" />
        <path
           style="fill:#b3b3b3;fill-opacity:1;stroke:none"
           d="m 335,502.35969 25,-75.29295 -25,-84.70456 -25,84.70456 z"
           id="path4619"
           inkscape:connector-curvature="0" />
        <path
           sodipodi:type="arc"
           style="fill:#85bbe1;fill-opacity:1;fill-rule:nonzero;stroke:#ffffff;stroke-width:8;stroke-miterlimit:4;stroke-opacity:1;stroke-dasharray:none"
           id="path4623"
           sodipodi:cx="543.76514"
           sodipodi:cy="175.54977"
           sodipodi:rx="45.254833"
           sodipodi:ry="45.254833"
           d="m 589.01997,175.54977 c 0,24.99356 -20.26128,45.25484 -45.25483,45.25484 -24.99356,0 -45.25484,-20.26128 -45.25484,-45.25484 0,-24.99355 20.26128,-45.25483 45.25484,-45.25483 24.99355,0 45.25483,20.26128 45.25483,45.25483 z"
           transform="translate(-208.5965,22.585787)" />
      </g>
      <path
         style="fill:#f3a702"
         d="m 341.85601,638.08374 c -0.36861,-0.44466 -1.20152,-2.03124 -1.85091,-3.52571 -1.66551,-3.8329 -5.07241,-8.64524 -17.70256,-25.00519 -6.07986,-7.87531 -12.19034,-15.98566 -13.57884,-18.02304 -3.95869,-5.80858 -5.70719,-10.48471 -7.14672,-19.11292 -0.37919,-2.27274 -0.82542,-4.94073 -0.99162,-5.92888 -1.17138,-6.96439 -2.13416,-20.42852 -1.8496,-25.86592 0.288,-5.50304 1.49219,-11.97411 2.14615,-11.53304 0.14357,0.0968 0.45469,1.3557 0.69139,2.7975 1.37751,8.39084 2.74896,13.20585 5.88599,20.66517 3.28257,7.80535 7.88991,16.03331 18.67804,33.356 16.84436,27.04724 18.97583,31.94252 18.94666,43.51401 -0.0146,5.78202 -0.1431,6.8974 -0.97738,8.48236 -0.63128,1.19932 -1.35731,1.25728 -2.2506,0.17966 z m 13.79922,-30.65275 c -0.38762,-0.2963 -4.59026,-6.07236 -9.3392,-12.83567 -4.74895,-6.76335 -10.52063,-14.96985 -12.82597,-18.2367 -12.82836,-18.17889 -16.69076,-27.52367 -18.70875,-45.26425 -0.55991,-4.9223 -1.35282,-14.76094 -1.34658,-16.70867 0.0139,-4.33821 -1.36342,-15.52803 -2.17092,-17.63713 -0.7761,-2.02711 -2.61237,-2.93114 -4.70479,-2.31626 -5.83279,1.71402 -12.94816,15.85794 -17.50446,34.79532 -2.33533,9.7063 -3.91386,14.70539 -4.97411,15.7525 -0.55083,0.54402 -0.6851,0.55513 -1.1098,0.0916 -1.83538,-2.00299 -2.69394,-14.57628 -2.96642,-43.44214 -0.14802,-15.68125 -0.58311,-28.572 -1.02177,-30.27323 -0.35697,-1.38438 -1.81422,-0.76695 -7.2063,3.05337 -3.03911,2.15323 -3.48943,2.22416 -3.99754,0.62972 -0.49861,-1.56465 -0.55532,-9.04079 -0.0973,-12.81989 1.43906,-11.87225 8.17779,-27.95063 14.9319,-35.62698 2.72071,-3.09222 1.89269,-2.93678 15.64184,-2.93678 8.54034,0 12.24668,0.11872 12.40445,0.39728 0.12375,0.21853 5.44384,17.44147 11.82243,38.27327 6.37859,20.83179 11.69415,37.98149 11.81234,38.11049 0.1182,0.129 0.30612,0.135 0.4176,0.0133 0.11147,-0.12166 5.42739,-17.27202 11.81314,-38.11193 6.38575,-20.83988 11.71135,-38.06885 11.83465,-38.2866 0.15822,-0.27938 4.86592,-0.39587 15.99631,-0.39587 l 15.77211,0 0.70517,0.80848 c 2.37433,2.72218 6.05791,10.05287 7.53824,15.00187 2.16204,7.22807 2.82662,16.69178 1.84203,26.23081 -0.43196,4.18501 -0.75722,6.12378 -2.44139,14.55271 -0.79249,3.96624 -2.64578,10.76829 -5.97203,21.9189 -4.62798,15.51442 -6.61205,24.61252 -7.24829,33.23768 -0.21138,2.86562 -0.45499,5.49319 -0.54134,5.83905 -0.36373,1.4567 -2.44266,0.15368 -4.00655,-2.51122 -0.97845,-1.66732 -2.28111,-5.18619 -3.84362,-10.38277 -1.34339,-4.46783 -2.91785,-7.16878 -4.79713,-8.22932 -2.34874,-1.32552 -3.80098,-0.18391 -6.95412,5.46668 -3.95752,7.09201 -10.36149,21.8439 -13.30923,30.65849 -1.08491,3.24422 -1.27858,4.28249 -1.38199,7.40917 -0.14815,4.47914 0.45208,7.87215 3.39313,19.18097 3.62546,13.94046 4.09815,16.42502 4.11048,21.60543 0.007,3.12236 -0.39253,3.88542 -1.56627,2.98822 z"
         id="path3000"
         inkscape:connector-curvature="0" />
      <path
         style="fill:#f08d01"
         d="m 341.94511,637.33411 c -0.37449,-0.44467 -1.27802,-2.11439 -2.00786,-3.71052 -2.09788,-4.58794 -4.11345,-7.39115 -20.7428,-28.84861 -14.27453,-18.41895 -15.44355,-20.64486 -17.48181,-33.2874 -0.19118,-1.18578 -0.56563,-3.44953 -0.83212,-5.03057 -1.13181,-6.71476 -1.95799,-18.75309 -1.66456,-24.25451 0.19191,-3.59783 0.74151,-7.20607 1.3683,-8.98316 0.25593,-0.72559 1.06395,1.24654 1.08414,2.64608 0.0159,1.10356 1.38538,7.51505 2.23619,10.46933 0.28458,0.98815 1.01244,2.98076 1.61747,4.42797 0.60504,1.44727 1.10006,2.69973 1.10006,2.78327 0,0.0835 0.51858,1.37712 1.1524,2.87461 0.63382,1.49749 1.1524,2.76987 1.1524,2.8275 0,0.25315 7.42294,13.87108 8.53227,15.65308 0.67666,1.08696 5.06358,8.12077 9.74871,15.63069 15.35438,24.6119 17.78258,30.29813 17.55079,41.09958 -0.0925,4.31188 -0.19371,5.10474 -0.73454,5.75591 -0.79941,0.96253 -1.23292,0.95142 -2.07904,-0.0533 z m 12.8648,-31.62071 c -0.55044,-0.64229 -2.64509,-3.51241 -4.65479,-6.37804 -2.0097,-2.86562 -6.95196,-9.89944 -10.98279,-15.63069 -9.20282,-13.08504 -12.93736,-18.7228 -15.58167,-23.5225 -5.82854,-10.57942 -7.89407,-19.03174 -9.22332,-37.74261 -1.24696,-17.5526 -1.43621,-19.45056 -2.36465,-23.71554 -0.61421,-2.8215 -1.22258,-4.02359 -2.43037,-4.80222 -1.18163,-0.76173 -2.13334,-0.73187 -3.8549,0.12092 -5.39748,2.67378 -11.80691,15.97061 -16.37267,33.96639 -0.50141,1.9763 -1.28084,5.04854 -1.73205,6.8272 -1.14056,4.49596 -2.64889,8.62031 -3.43739,9.39907 -0.64494,0.63695 -0.68067,0.63343 -1.2417,-0.1227 -1.10658,-1.49139 -1.67717,-7.87644 -2.17193,-24.30465 -0.25698,-8.53295 -0.47014,-20.27535 -0.4737,-26.09424 -0.007,-11.19675 -0.4348,-19.41217 -1.14572,-21.99472 -0.39574,-1.43759 -0.51289,-1.5571 -1.47652,-1.50607 -0.68917,0.0365 -2.25358,0.92627 -4.58017,2.60511 -3.76509,2.71683 -4.78351,3.06398 -5.10833,1.74122 -0.5315,-2.1644 -0.0754,-10.0072 0.84101,-14.46288 2.32979,-11.32708 9.79085,-26.93865 15.3762,-32.17324 l 1.51981,-1.42437 12.61412,0.0902 12.61411,0.0901 8.0566,26.41048 c 6.37212,20.88857 8.03131,26.71098 7.93565,27.84778 -0.0665,0.79052 -0.66396,3.72485 -1.32763,6.52073 -2.34984,9.89915 -3.0715,19.48989 -2.19962,29.23224 1.09579,12.24408 4.54078,27.99086 7.86115,35.93262 2.10287,5.0297 3.81523,6.49202 5.25807,4.49025 1.57991,-2.19197 7.00733,-16.39484 8.7874,-22.99555 0.47966,-1.77867 1.08387,-3.89032 1.34267,-4.69259 0.63211,-1.9594 2.31969,-10.58391 2.98401,-15.25001 0.68106,-4.78365 0.79298,-17.67998 0.1871,-21.55959 -0.85473,-5.47311 -2.92162,-11.20584 -5.28212,-14.65048 l -1.29815,-1.89437 7.5128,-24.69577 7.51281,-24.69574 15.8784,-0.0933 c 18.17281,-0.10679 16.13037,-0.50877 18.73163,3.68658 3.26969,5.27343 5.6266,11.5832 6.711,17.9663 1.36394,8.02847 0.98695,17.25719 -1.15956,28.38678 -1.26851,6.57714 -1.50662,7.63316 -2.43064,10.77978 -0.23214,0.79052 -0.717,2.48834 -1.07746,3.77293 -1.72208,6.13711 -3.51381,12.33818 -4.41251,15.27136 -0.54496,1.77867 -1.27317,4.36581 -1.61825,5.74923 -0.34509,1.38341 -0.85924,3.40462 -1.14256,4.49158 -1.74486,6.69406 -2.71223,12.10617 -3.26679,18.27659 -0.27288,3.0363 -0.57733,5.66387 -0.67654,5.83905 -0.31761,0.56083 -0.94952,0.34531 -2.14766,-0.73249 -1.49184,-1.34201 -2.82076,-4.12913 -4.55309,-9.54909 -2.41308,-7.54984 -3.42078,-9.58492 -5.41062,-10.92704 -2.45619,-1.65664 -3.75047,-0.7355 -6.8803,4.89661 -5.8935,10.60529 -13.49247,29.17312 -15.06499,36.81077 -0.49132,2.38636 -0.29553,9.91665 0.33017,12.69813 0.40753,1.81161 3.62284,14.64502 5.08649,20.30193 1.31989,5.10124 2.07652,10.43921 1.67527,11.81892 -0.30825,1.05986 -0.87296,0.94603 -2.03531,-0.41032 z M 294.52558,486.23743 c 3.20118,-3.37105 8.88247,-10.75334 10.40818,-13.52442 1.35963,-2.4694 1.10699,-3.09441 -1.25081,-3.09441 -3.34495,0 -7.08795,4.1454 -10.70674,11.85776 -0.69548,1.48222 -1.37627,2.85665 -1.51286,3.05427 -0.47317,0.68466 -1.06337,3.36225 -0.86527,3.92561 0.37744,1.07345 1.29157,0.55702 3.9275,-2.21881 z m 88.44545,-6.38461 c 1.41382,-1.75732 1.56128,-2.71712 0.71169,-4.63243 -0.813,-1.83278 -3.01117,-4.16449 -3.92603,-4.16449 -1.49974,0 -1.97276,2.27127 -1.19465,5.73636 0.98765,4.39826 2.49239,5.44278 4.40899,3.06056 z"
         id="path2998"
         inkscape:connector-curvature="0" />
    </g>
  </g>
</svg>
